<svg xmlns="http://www.w3.org/2000/svg" viewBox="0 0 3.4190 0.8000" width="1710" height="400">
<rect width="100%" height="100%" fill="white"/>
<g><path d="M 0.3881,0.6500 L 0.1500,0.6500 L 0.1500,0.1500 L 0.3881,0.1500" fill="none" stroke="black" stroke-width="0.025"/>
<path d="M 0.8405,0.6500 L 0.6024,0.6500 L 0.6024,0.1500 L 0.8405,0.1500" fill="none" stroke="black" stroke-width="0.025"/>
<path d="M 1.0548,0.6500 L 1.0548,0.1500 L 1.2452,0.1500 L 1.2929,0.1738 L 1.3167,0.1976 L 1.3405,0.2452 L 1.3405,0.3167 L 1.3167,0.3643 L 1.2929,0.3881 L 1.2452,0.4119 L 1.0548,0.4119" fill="none" stroke="black" stroke-width="0.025"/>
<path d="M 1.5548,0.6500 L 1.5548,0.1500 L 1.7452,0.1500 L 1.7929,0.1738 L 1.8167,0.1976 L 1.8405,0.2452 L 1.8405,0.3167 L 1.8167,0.3643 L 1.7929,0.3881 L 1.7452,0.4119 L 1.5548,0.4119" fill="none" stroke="black" stroke-width="0.025"/>
<path d="M 2.1500,0.1500 L 2.2452,0.1500 L 2.2929,0.1738 L 2.3405,0.2214 L 2.3643,0.3167 L 2.3643,0.4833 L 2.3405,0.5786 L 2.2929,0.6262 L 2.2452,0.6500 L 2.1500,0.6500 L 2.1024,0.6262 L 2.0548,0.5786 L 2.0310,0.4833 L 2.0310,0.3167 L 2.0548,0.2214 L 2.1024,0.1738 L 2.1500,0.1500" fill="none" stroke="black" stroke-width="0.025"/>
<path d="M 2.5786,0.6500 L 2.5786,0.1500 L 2.7452,0.5071 L 2.9119,0.1500 L 2.9119,0.6500" fill="none" stroke="black" stroke-width="0.025"/>
<path d="M 3.2690,0.6500 L 3.2690,0.1500 L 3.2214,0.2214 L 3.1738,0.2690 L 3.1262,0.2929" fill="none" stroke="black" stroke-width="0.025"/></g>
</svg>