<svg xmlns="http://www.w3.org/2000/svg" viewBox="0 0 1.5619 0.8000" width="781" height="400">
<rect width="100%" height="100%" fill="white"/>
<g><path d="M 0.7929,0.6500 L 0.7929,0.1500 L 0.7452,0.2214 L 0.6976,0.2690 L 0.6500,0.2929" fill="none" stroke="black" stroke-width="0.025"/>
<path d="M 1.2214,0.3643 L 1.1738,0.3405 L 1.1500,0.3167 L 1.1262,0.2690 L 1.1262,0.2452 L 1.1500,0.1976 L 1.1738,0.1738 L 1.2214,0.1500 L 1.3167,0.1500 L 1.3643,0.1738 L 1.3881,0.1976 L 1.4119,0.2452 L 1.4119,0.2690 L 1.3881,0.3167 L 1.3643,0.3405 L 1.3167,0.3643 L 1.2214,0.3643 L 1.1738,0.3881 L 1.1500,0.4119 L 1.1262,0.4595 L 1.1262,0.5548 L 1.1500,0.6024 L 1.1738,0.6262 L 1.2214,0.6500 L 1.3167,0.6500 L 1.3643,0.6262 L 1.3881,0.6024 L 1.4119,0.5548 L 1.4119,0.4595 L 1.3881,0.4119 L 1.3643,0.3881 L 1.3167,0.3643" fill="none" stroke="black" stroke-width="0.025"/>
<path d="M 0.4595,0.6024 L 0.4357,0.6262 L 0.3643,0.6500 L 0.3167,0.6500 L 0.2452,0.6262 L 0.1976,0.5786 L 0.1738,0.5310 L 0.1500,0.4357 L 0.1500,0.3643 L 0.1738,0.2690 L 0.1976,0.2214 L 0.2452,0.1738 L 0.3167,0.1500 L 0.3643,0.1500 L 0.4357,0.1738 L 0.4595,0.1976" fill="none" stroke="black" stroke-width="0.025"/></g>
</svg>