<svg xmlns="http://www.w3.org/2000/svg" viewBox="0 0 1.2905 0.7000" width="645" height="350">
<rect width="100%" height="100%" fill="white"/>
<g><path d="M 0.1500,0.5500 L 0.1500,0.1500 L 0.3024,0.1500 L 0.3405,0.1690 L 0.3595,0.1881 L 0.3786,0.2262 L 0.3786,0.2833 L 0.3595,0.3214 L 0.3405,0.3405 L 0.3024,0.3595 L 0.1500,0.3595" fill="none" stroke="black" stroke-width="0.025"/>
<path d="M 0.5310,0.1881 L 0.5500,0.1690 L 0.5881,0.1500 L 0.6833,0.1500 L 0.7214,0.1690 L 0.7405,0.1881 L 0.7595,0.2262 L 0.7595,0.2643 L 0.7405,0.3214 L 0.5119,0.5500 L 0.7595,0.5500" fill="none" stroke="black" stroke-width="0.025"/>
<path d="M 1.0071,0.1500 L 1.0452,0.1500 L 1.0833,0.1690 L 1.1024,0.1881 L 1.1214,0.2262 L 1.1405,0.3024 L 1.1405,0.3976 L 1.1214,0.4738 L 1.1024,0.5119 L 1.0833,0.5310 L 1.0452,0.5500 L 1.0071,0.5500 L 0.9690,0.5310 L 0.9500,0.5119 L 0.9310,0.4738 L 0.9119,0.3976 L 0.9119,0.3024 L 0.9310,0.2262 L 0.9500,0.1881 L 0.9690,0.1690 L 1.0071,0.1500" fill="none" stroke="black" stroke-width="0.025"/></g>
</svg>