<svg xmlns="http://www.w3.org/2000/svg" viewBox="0 0 3.0685 0.7000" width="1534" height="350">
<rect width="100%" height="100%" fill="white"/>
<g><path d="M 1.0262,0.5500 L 1.0262,0.1500 L 0.9881,0.2071 L 0.9500,0.2452 L 0.9119,0.2643" fill="none" stroke="black" stroke-width="0.025"/>
<path d="M 1.9280,0.5500 L 1.9280,0.1500 L 2.0804,0.1500 L 2.1185,0.1690 L 2.1375,0.1881 L 2.1566,0.2262 L 2.1566,0.2833 L 2.1375,0.3214 L 2.1185,0.3405 L 2.0804,0.3595 L 1.9280,0.3595" fill="none" stroke="black" stroke-width="0.025"/>
<path d="M 2.4232,0.5500 L 2.4232,0.1500 L 2.3851,0.2071 L 2.3470,0.2452 L 2.3090,0.2643" fill="none" stroke="black" stroke-width="0.025"/>
<path d="M 2.6899,0.1881 L 2.7090,0.1690 L 2.7470,0.1500 L 2.8423,0.1500 L 2.8804,0.1690 L 2.8994,0.1881 L 2.9185,0.2262 L 2.9185,0.2643 L 2.8994,0.3214 L 2.6709,0.5500 L 2.9185,0.5500" fill="none" stroke="black" stroke-width="0.025"/>
<path d="M 0.1500,0.5500 L 0.1500,0.1500 L 0.3024,0.1500 L 0.3405,0.1690 L 0.3595,0.1881 L 0.3786,0.2262 L 0.3786,0.2833 L 0.3595,0.3214 L 0.3405,0.3405 L 0.3024,0.3595 L 0.1500,0.3595" fill="none" stroke="black" stroke-width="0.025"/>
<path d="M 0.6452,0.5500 L 0.6452,0.1500 L 0.6071,0.2071 L 0.5690,0.2452 L 0.5310,0.2643" fill="none" stroke="black" stroke-width="0.025"/></g>
</svg>