<svg xmlns="http://www.w3.org/2000/svg" viewBox="0 0 0.7000 1.3095" width="350" height="655">
<rect width="100%" height="100%" fill="white"/>
<g><path d="M 0.5119,0.9119 L 0.5310,0.9310 L 0.5500,0.9881 L 0.5500,1.0262 L 0.5310,1.0833 L 0.4929,1.1214 L 0.4548,1.1405 L 0.3786,1.1595 L 0.3214,1.1595 L 0.2452,1.1405 L 0.2071,1.1214 L 0.1690,1.0833 L 0.1500,1.0262 L 0.1500,0.9881 L 0.1690,0.9310 L 0.1881,0.9119" fill="none" stroke="black" stroke-width="0.025"/>
<path d="M 0.5500,0.6452 L 0.1500,0.6452 L 0.2071,0.6833 L 0.2452,0.7214 L 0.2643,0.7595" fill="none" stroke="black" stroke-width="0.025"/>
<path d="M 0.5500,0.3405 L 0.5500,0.2643 L 0.5310,0.2262 L 0.5119,0.2071 L 0.4548,0.1690 L 0.3786,0.1500 L 0.2262,0.1500 L 0.1881,0.1690 L 0.1690,0.1881 L 0.1500,0.2262 L 0.1500,0.3024 L 0.1690,0.3405 L 0.1881,0.3595 L 0.2262,0.3786 L 0.3214,0.3786 L 0.3595,0.3595 L 0.3786,0.3405 L 0.3976,0.3024 L 0.3976,0.2262 L 0.3786,0.1881 L 0.3595,0.1690 L 0.3214,0.1500" fill="none" stroke="black" stroke-width="0.025"/></g>
</svg>