<svg xmlns="http://www.w3.org/2000/svg" viewBox="0 0 2.6557 0.7000" width="1328" height="350">
<rect width="100%" height="100%" fill="white"/>
<g><path d="M 0.3976,0.5119 L 0.3786,0.5310 L 0.3214,0.5500 L 0.2833,0.5500 L 0.2262,0.5310 L 0.1881,0.4929 L 0.1690,0.4548 L 0.1500,0.3786 L 0.1500,0.3214 L 0.1690,0.2452 L 0.1881,0.2071 L 0.2262,0.1690 L 0.2833,0.1500 L 0.3214,0.1500 L 0.3786,0.1690 L 0.3976,0.1881" fill="none" stroke="black" stroke-width="0.025"/>
<path d="M 0.6643,0.5500 L 0.6643,0.1500 L 0.6262,0.2071 L 0.5881,0.2452 L 0.5500,0.2643" fill="none" stroke="black" stroke-width="0.025"/>
<path d="M 1.1405,0.1500 L 0.9500,0.1500 L 0.9310,0.3405 L 0.9500,0.3214 L 0.9881,0.3024 L 1.0833,0.3024 L 1.1214,0.3214 L 1.1405,0.3405 L 1.1595,0.3786 L 1.1595,0.4738 L 1.1405,0.5119 L 1.1214,0.5310 L 1.0833,0.5500 L 0.9881,0.5500 L 0.9500,0.5310 L 0.9310,0.5119" fill="none" stroke="black" stroke-width="0.025"/>
<path d="M 1.7438,0.5119 L 1.7248,0.5310 L 1.6676,0.5500 L 1.6295,0.5500 L 1.5724,0.5310 L 1.5343,0.4929 L 1.5152,0.4548 L 1.4962,0.3786 L 1.4962,0.3214 L 1.5152,0.2452 L 1.5343,0.2071 L 1.5724,0.1690 L 1.6295,0.1500 L 1.6676,0.1500 L 1.7248,0.1690 L 1.7438,0.1881" fill="none" stroke="black" stroke-width="0.025"/>
<path d="M 2.0105,0.5500 L 2.0105,0.1500 L 1.9724,0.2071 L 1.9343,0.2452 L 1.8962,0.2643" fill="none" stroke="black" stroke-width="0.025"/>
<path d="M 2.4676,0.1500 L 2.3914,0.1500 L 2.3533,0.1690 L 2.3343,0.1881 L 2.2962,0.2452 L 2.2772,0.3214 L 2.2772,0.4738 L 2.2962,0.5119 L 2.3152,0.5310 L 2.3533,0.5500 L 2.4295,0.5500 L 2.4676,0.5310 L 2.4867,0.5119 L 2.5057,0.4738 L 2.5057,0.3786 L 2.4867,0.3405 L 2.4676,0.3214 L 2.4295,0.3024 L 2.3533,0.3024 L 2.3152,0.3214 L 2.2962,0.3405 L 2.2772,0.3786" fill="none" stroke="black" stroke-width="0.025"/></g>
</svg>