<svg xmlns="http://www.w3.org/2000/svg" viewBox="0 0 1.3095 0.7000" width="655" height="350">
<rect width="100%" height="100%" fill="white"/>
<g><path d="M 0.3976,0.5119 L 0.3786,0.5310 L 0.3214,0.5500 L 0.2833,0.5500 L 0.2262,0.5310 L 0.1881,0.4929 L 0.1690,0.4548 L 0.1500,0.3786 L 0.1500,0.3214 L 0.1690,0.2452 L 0.1881,0.2071 L 0.2262,0.1690 L 0.2833,0.1500 L 0.3214,0.1500 L 0.3786,0.1690 L 0.3976,0.1881" fill="none" stroke="black" stroke-width="0.025"/>
<path d="M 0.5310,0.1500 L 0.7786,0.1500 L 0.6452,0.3024 L 0.7024,0.3024 L 0.7405,0.3214 L 0.7595,0.3405 L 0.7786,0.3786 L 0.7786,0.4738 L 0.7595,0.5119 L 0.7405,0.5310 L 0.7024,0.5500 L 0.5881,0.5500 L 0.5500,0.5310 L 0.5310,0.5119" fill="none" stroke="black" stroke-width="0.025"/>
<path d="M 0.9310,0.1881 L 0.9500,0.1690 L 0.9881,0.1500 L 1.0833,0.1500 L 1.1214,0.1690 L 1.1405,0.1881 L 1.1595,0.2262 L 1.1595,0.2643 L 1.1405,0.3214 L 0.9119,0.5500 L 1.1595,0.5500" fill="none" stroke="black" stroke-width="0.025"/></g>
</svg>