<svg xmlns="http://www.w3.org/2000/svg" viewBox="0 0 1.8476 0.8000" width="924" height="400">
<rect width="100%" height="100%" fill="white"/>
<g><path d="M 1.0786,0.6500 L 1.0786,0.1500 L 1.2690,0.1500 L 1.3167,0.1738 L 1.3405,0.1976 L 1.3643,0.2452 L 1.3643,0.3167 L 1.3405,0.3643 L 1.3167,0.3881 L 1.2690,0.4119 L 1.0786,0.4119" fill="none" stroke="black" stroke-width="0.025"/>
<path d="M 1.6976,0.6500 L 1.6976,0.1500 L 1.6500,0.2214 L 1.6024,0.2690 L 1.5548,0.2929" fill="none" stroke="black" stroke-width="0.025"/>
<path d="M 0.3167,0.3881 L 0.3881,0.4119 L 0.4119,0.4357 L 0.4357,0.4833 L 0.4357,0.5548 L 0.4119,0.6024 L 0.3881,0.6262 L 0.3405,0.6500 L 0.1500,0.6500 L 0.1500,0.1500 L 0.3167,0.1500 L 0.3643,0.1738 L 0.3881,0.1976 L 0.4119,0.2452 L 0.4119,0.2929 L 0.3881,0.3405 L 0.3643,0.3643 L 0.3167,0.3881 L 0.1500,0.3881" fill="none" stroke="black" stroke-width="0.025"/>
<path d="M 0.5786,0.6500 L 0.7452,0.1500 L 0.9119,0.6500" fill="none" stroke="black" stroke-width="0.025"/></g>
</svg>