<svg xmlns="http://www.w3.org/2000/svg" viewBox="0 0 0.5857 0.8000" width="234" height="320">
<rect width="100%" height="100%" fill="white"/>
<g><path d="M 0.2452,0.3643 L 0.1976,0.3405 L 0.1738,0.3167 L 0.1500,0.2690 L 0.1500,0.2452 L 0.1738,0.1976 L 0.1976,0.1738 L 0.2452,0.1500 L 0.3405,0.1500 L 0.3881,0.1738 L 0.4119,0.1976 L 0.4357,0.2452 L 0.4357,0.2690 L 0.4119,0.3167 L 0.3881,0.3405 L 0.3405,0.3643 L 0.2452,0.3643 L 0.1976,0.3881 L 0.1738,0.4119 L 0.1500,0.4595 L 0.1500,0.5548 L 0.1738,0.6024 L 0.1976,0.6262 L 0.2452,0.6500 L 0.3405,0.6500 L 0.3881,0.6262 L 0.4119,0.6024 L 0.4357,0.5548 L 0.4357,0.4595 L 0.4119,0.4119 L 0.3881,0.3881 L 0.3405,0.3643" fill="none" stroke="black" stroke-width="0.02"/></g>
</svg>