<svg xmlns="http://www.w3.org/2000/svg" viewBox="0 0 2.4000 1.1500" width="960" height="460">
<rect width="100%" height="100%" fill="white"/>
<g><path d="M 1.7714,0.2357 L 1.8429,0.2000 L 1.9500,0.2000 L 2.0571,0.2357 L 2.1286,0.3071 L 2.1643,0.3786 L 2.2000,0.5214 L 2.2000,0.6286 L 2.1643,0.7714 L 2.1286,0.8429 L 2.0571,0.9143 L 1.9500,0.9500 L 1.8786,0.9500 L 1.7714,0.9143 L 1.7357,0.8786 L 1.7357,0.6286 L 1.8786,0.6286" fill="none" stroke="black" stroke-width="0.025"/>
<path d="M 1.4143,0.9500 L 1.4143,0.2000 L 0.9857,0.9500 L 0.9857,0.2000" fill="none" stroke="black" stroke-width="0.025"/>
<path d="M 0.6286,0.9500 L 0.6286,0.2000 L 0.4500,0.2000 L 0.3429,0.2357 L 0.2714,0.3071 L 0.2357,0.3786 L 0.2000,0.5214 L 0.2000,0.6286 L 0.2357,0.7714 L 0.2714,0.8429 L 0.3429,0.9143 L 0.4500,0.9500 L 0.6286,0.9500" fill="none" stroke="black" stroke-width="0.025"/></g>
</svg>