<svg xmlns="http://www.w3.org/2000/svg" viewBox="0 0 4.9449 2.4000" width="1978" height="960">
<rect width="100%" height="100%" fill="white"/>
<g><path d="M 2.7963,1.7357 L 2.7606,1.7714 L 2.7249,1.8429 L 2.7249,2.0214 L 2.7606,2.0929 L 2.7963,2.1286 L 2.8678,2.1643 L 2.9392,2.1643 L 3.0463,2.1286 L 3.4749,1.7000 L 3.4749,2.1643" fill="none" stroke="black" stroke-width="0.025"/>
<path d="M 2.1589,0.6643 L 2.1946,0.6286 L 2.2303,0.5214 L 2.2303,0.4500 L 2.1946,0.3429 L 2.1232,0.2714 L 2.0517,0.2357 L 1.9089,0.2000 L 1.8017,0.2000 L 1.6589,0.2357 L 1.5875,0.2714 L 1.5160,0.3429 L 1.4803,0.4500 L 1.4803,0.5214 L 1.5160,0.6286 L 1.5517,0.6643" fill="none" stroke="black" stroke-width="0.025"/>
<path d="M 1.4803,1.7000 L 1.4803,2.1643 L 1.7660,1.9143 L 1.7660,2.0214 L 1.8017,2.0929 L 1.8375,2.1286 L 1.9089,2.1643 L 2.0875,2.1643 L 2.1589,2.1286 L 2.1946,2.0929 L 2.2303,2.0214 L 2.2303,1.8071 L 2.1946,1.7357 L 2.1589,1.7000" fill="none" stroke="black" stroke-width="0.025"/>
<path d="M 0.9143,0.6643 L 0.9500,0.6286 L 0.9857,0.5214 L 0.9857,0.4500 L 0.9500,0.3429 L 0.8786,0.2714 L 0.8071,0.2357 L 0.6643,0.2000 L 0.5571,0.2000 L 0.4143,0.2357 L 0.3429,0.2714 L 0.2714,0.3429 L 0.2357,0.4500 L 0.2357,0.5214 L 0.2714,0.6286 L 0.3071,0.6643" fill="none" stroke="black" stroke-width="0.025"/>
<path d="M 0.2000,1.9143 L 0.7357,1.7357 L 0.7357,2.2000" fill="none" stroke="black" stroke-width="0.025"/>
<path d="M 4.6735,0.6643 L 4.7092,0.6286 L 4.7449,0.5214 L 4.7449,0.4500 L 4.7092,0.3429 L 4.6378,0.2714 L 4.5663,0.2357 L 4.4235,0.2000 L 4.3163,0.2000 L 4.1735,0.2357 L 4.1021,0.2714 L 4.0306,0.3429 L 3.9949,0.4500 L 3.9949,0.5214 L 4.0306,0.6286 L 4.0663,0.6643" fill="none" stroke="black" stroke-width="0.025"/>
<path d="M 4.7449,1.9500 L 3.9949,1.9500 L 4.1021,1.8786 L 4.1735,1.8071 L 4.2092,1.7357" fill="none" stroke="black" stroke-width="0.025"/>
<path d="M 3.4035,0.6643 L 3.4392,0.6286 L 3.4749,0.5214 L 3.4749,0.4500 L 3.4392,0.3429 L 3.3678,0.2714 L 3.2963,0.2357 L 3.1535,0.2000 L 3.0463,0.2000 L 2.9035,0.2357 L 2.8321,0.2714 L 2.7606,0.3429 L 2.7249,0.4500 L 2.7249,0.5214 L 2.7606,0.6286 L 2.7963,0.6643" fill="none" stroke="black" stroke-width="0.025"/></g>
</svg>