<svg xmlns="http://www.w3.org/2000/svg" viewBox="0 0 2.6381 0.9000" width="1055" height="360">
<rect width="100%" height="100%" fill="white"/>
<g><path d="M 0.4381,0.7000 L 0.3429,0.7000 L 0.2952,0.6762 L 0.2714,0.6524 L 0.2238,0.5810 L 0.2000,0.4857 L 0.2000,0.2952 L 0.2238,0.2476 L 0.2476,0.2238 L 0.2952,0.2000 L 0.3905,0.2000 L 0.4381,0.2238 L 0.4619,0.2476 L 0.4857,0.2952 L 0.4857,0.4143 L 0.4619,0.4619 L 0.4381,0.4857 L 0.3905,0.5095 L 0.2952,0.5095 L 0.2476,0.4857 L 0.2238,0.4619 L 0.2000,0.4143" fill="none" stroke="black" stroke-width="0.025"/>
<path d="M 2.2952,0.7000 L 2.2952,0.2000 L 2.3429,0.2714 L 2.3905,0.3190 L 2.4381,0.3429" fill="none" stroke="black" stroke-width="0.025"/>
<path d="M 1.9619,0.2476 L 1.9381,0.2238 L 1.8905,0.2000 L 1.7714,0.2000 L 1.7238,0.2238 L 1.7000,0.2476 L 1.6762,0.2952 L 1.6762,0.3429 L 1.7000,0.4143 L 1.9857,0.7000 L 1.6762,0.7000" fill="none" stroke="black" stroke-width="0.025"/>
<path d="M 0.8190,0.7000 L 0.8190,0.2000 L 0.8667,0.2714 L 0.9143,0.3190 L 0.9619,0.3429" fill="none" stroke="black" stroke-width="0.025"/></g>
</svg>