<svg xmlns="http://www.w3.org/2000/svg" viewBox="0 0 2.4000 4.8330" width="960" height="1933">
<rect width="100%" height="100%" fill="white"/>
<g><path d="M 0.7206,3.8830 L 0.2563,3.8830 L 0.5063,4.1687 L 0.3992,4.1687 L 0.3278,4.2044 L 0.2921,4.2401 L 0.2563,4.3116 L 0.2563,4.4901 L 0.2921,4.5616 L 0.3278,4.5973 L 0.3992,4.6330 L 0.6135,4.6330 L 0.6849,4.5973 L 0.7206,4.5616" fill="none" stroke="black" stroke-width="0.025"/>
<path d="M 1.7714,2.6487 L 1.8429,2.6130 L 1.9500,2.6130 L 2.0571,2.6487 L 2.1286,2.7201 L 2.1643,2.7916 L 2.2000,2.9344 L 2.2000,3.0416 L 2.1643,3.1844 L 2.1286,3.2559 L 2.0571,3.3273 L 1.9500,3.3630 L 1.8786,3.3630 L 1.7714,3.3273 L 1.7357,3.2916 L 1.7357,3.0416 L 1.8786,3.0416" fill="none" stroke="black" stroke-width="0.025"/>
<path d="M 1.4143,3.3630 L 1.4143,2.6130 L 0.9857,3.3630 L 0.9857,2.6130" fill="none" stroke="black" stroke-width="0.025"/>
<path d="M 0.6286,3.3630 L 0.6286,2.6130 L 0.4500,2.6130 L 0.3429,2.6487 L 0.2714,2.7201 L 0.2357,2.7916 L 0.2000,2.9344 L 0.2000,3.0416 L 0.2357,3.1844 L 0.2714,3.2559 L 0.3429,3.3273 L 0.4500,3.3630 L 0.6286,3.3630" fill="none" stroke="black" stroke-width="0.025"/>
<path d="M 2.1183,2.0573 L 2.0111,2.0930 L 1.8325,2.0930 L 1.7611,2.0573 L 1.7254,2.0216 L 1.6897,1.9501 L 1.6897,1.8787 L 1.7254,1.8073 L 1.7611,1.7716 L 1.8325,1.7359 L 1.9754,1.7001 L 2.0468,1.6644 L 2.0825,1.6287 L 2.1183,1.5573 L 2.1183,1.4859 L 2.0825,1.4144 L 2.0468,1.3787 L 1.9754,1.3430 L 1.7968,1.3430 L 1.6897,1.3787" fill="none" stroke="black" stroke-width="0.025"/>
<path d="M 0.9397,2.0216 L 0.9754,2.0573 L 1.0825,2.0930 L 1.1540,2.0930 L 1.2611,2.0573 L 1.3325,1.9859 L 1.3683,1.9144 L 1.4040,1.7716 L 1.4040,1.6644 L 1.3683,1.5216 L 1.3325,1.4501 L 1.2611,1.3787 L 1.1540,1.3430 L 1.0825,1.3430 L 0.9754,1.3787 L 0.9397,1.4144" fill="none" stroke="black" stroke-width="0.025"/>
<path d="M 0.2611,2.0930 L 0.6183,2.0930 L 0.6183,1.3430" fill="none" stroke="black" stroke-width="0.025"/>
<path d="M 2.1615,0.9143 L 2.0544,0.9500 L 1.8758,0.9500 L 1.8044,0.9143 L 1.7687,0.8786 L 1.7329,0.8071 L 1.7329,0.7357 L 1.7687,0.6643 L 1.8044,0.6286 L 1.8758,0.5929 L 2.0187,0.5571 L 2.0901,0.5214 L 2.1258,0.4857 L 2.1615,0.4143 L 2.1615,0.3429 L 2.1258,0.2714 L 2.0901,0.2357 L 2.0187,0.2000 L 1.8401,0.2000 L 1.7329,0.2357" fill="none" stroke="black" stroke-width="0.025"/>
<path d="M 1.4115,0.9500 L 1.4115,0.2000 L 1.2329,0.2000 L 1.1258,0.2357 L 1.0544,0.3071 L 1.0187,0.3786 L 0.9829,0.5214 L 0.9829,0.6286 L 1.0187,0.7714 L 1.0544,0.8429 L 1.1258,0.9143 L 1.2329,0.9500 L 1.4115,0.9500" fill="none" stroke="black" stroke-width="0.025"/>
<path d="M 0.7687,0.9500 L 0.5187,0.2000 L 0.2687,0.9500" fill="none" stroke="black" stroke-width="0.025"/>
<path d="M 2.0778,3.8830 L 1.6135,3.8830 L 1.8635,4.1687 L 1.7563,4.1687 L 1.6849,4.2044 L 1.6492,4.2401 L 1.6135,4.3116 L 1.6135,4.4901 L 1.6492,4.5616 L 1.6849,4.5973 L 1.7563,4.6330 L 1.9706,4.6330 L 2.0421,4.5973 L 2.0778,4.5616" fill="none" stroke="black" stroke-width="0.025"/>
<path d="M 1.3992,3.8830 L 1.1492,4.6330 L 0.8992,3.8830" fill="none" stroke="black" stroke-width="0.025"/></g>
</svg>