<svg xmlns="http://www.w3.org/2000/svg" viewBox="0 0 4.9092 2.4000" width="1964" height="960">
<rect width="100%" height="100%" fill="white"/>
<g><path d="M 2.7249,0.6286 L 2.6892,0.5571 L 2.6892,0.4500 L 2.7249,0.3429 L 2.7963,0.2714 L 2.8678,0.2357 L 3.0106,0.2000 L 3.1178,0.2000 L 3.2606,0.2357 L 3.3321,0.2714 L 3.4035,0.3429 L 3.4392,0.4500 L 3.4392,0.5214 L 3.4035,0.6286 L 3.3678,0.6643 L 3.1178,0.6643 L 3.1178,0.5214" fill="none" stroke="black" stroke-width="0.025"/>
<path d="M 3.4392,0.9857 L 2.6892,0.9857 L 3.4392,1.4143 L 2.6892,1.4143" fill="none" stroke="black" stroke-width="0.025"/>
<path d="M 3.4392,1.7714 L 2.6892,1.7714 L 2.6892,1.9500 L 2.7249,2.0571 L 2.7963,2.1286 L 2.8678,2.1643 L 3.0106,2.2000 L 3.1178,2.2000 L 3.2606,2.1643 L 3.3321,2.1286 L 3.4035,2.0571 L 3.4392,1.9500 L 3.4392,1.7714" fill="none" stroke="black" stroke-width="0.025"/>
<path d="M 3.9592,0.2714 L 3.9592,0.7357 L 4.2449,0.4857 L 4.2449,0.5929 L 4.2806,0.6643 L 4.3163,0.7000 L 4.3878,0.7357 L 4.5663,0.7357 L 4.6378,0.7000 L 4.6735,0.6643 L 4.7092,0.5929 L 4.7092,0.3786 L 4.6735,0.3071 L 4.6378,0.2714" fill="none" stroke="black" stroke-width="0.025"/>
<path d="M 3.9592,0.9500 L 4.7092,1.2000 L 3.9592,1.4500" fill="none" stroke="black" stroke-width="0.025"/>
<path d="M 3.9592,1.6286 L 3.9592,2.0929 L 4.2449,1.8429 L 4.2449,1.9500 L 4.2806,2.0214 L 4.3163,2.0571 L 4.3878,2.0929 L 4.5663,2.0929 L 4.6378,2.0571 L 4.6735,2.0214 L 4.7092,1.9500 L 4.7092,1.7357 L 4.6735,1.6643 L 4.6378,1.6286" fill="none" stroke="black" stroke-width="0.025"/>
<path d="M 0.9500,0.9893 L 0.2000,0.9893 L 0.2000,1.2750 L 0.2357,1.3465 L 0.2714,1.3822 L 0.3429,1.4179 L 0.4500,1.4179 L 0.5214,1.3822 L 0.5571,1.3465 L 0.5929,1.2750 L 0.5929,0.9893" fill="none" stroke="black" stroke-width="0.025"/></g>
</svg>