<svg xmlns="http://www.w3.org/2000/svg" viewBox="0 0 2.3946 2.4000" width="958" height="960">
<rect width="100%" height="100%" fill="white"/>
<g><path d="M 1.4803,0.6286 L 1.4446,0.5571 L 1.4446,0.4500 L 1.4803,0.3429 L 1.5517,0.2714 L 1.6232,0.2357 L 1.7660,0.2000 L 1.8732,0.2000 L 2.0160,0.2357 L 2.0875,0.2714 L 2.1589,0.3429 L 2.1946,0.4500 L 2.1946,0.5214 L 2.1589,0.6286 L 2.1232,0.6643 L 1.8732,0.6643 L 1.8732,0.5214" fill="none" stroke="black" stroke-width="0.025"/>
<path d="M 2.1946,0.9857 L 1.4446,0.9857 L 2.1946,1.4143 L 1.4446,1.4143" fill="none" stroke="black" stroke-width="0.025"/>
<path d="M 2.1946,1.7714 L 1.4446,1.7714 L 1.4446,1.9500 L 1.4803,2.0571 L 1.5517,2.1286 L 1.6232,2.1643 L 1.7660,2.2000 L 1.8732,2.2000 L 2.0160,2.1643 L 2.0875,2.1286 L 2.1589,2.0571 L 2.1946,1.9500 L 2.1946,1.7714" fill="none" stroke="black" stroke-width="0.025"/>
<path d="M 0.2000,0.2714 L 0.2000,0.7357 L 0.4857,0.4857 L 0.4857,0.5929 L 0.5214,0.6643 L 0.5571,0.7000 L 0.6286,0.7357 L 0.8071,0.7357 L 0.8786,0.7000 L 0.9143,0.6643 L 0.9500,0.5929 L 0.9500,0.3786 L 0.9143,0.3071 L 0.8786,0.2714" fill="none" stroke="black" stroke-width="0.025"/>
<path d="M 0.2000,0.9500 L 0.9500,1.2000 L 0.2000,1.4500" fill="none" stroke="black" stroke-width="0.025"/>
<path d="M 0.2000,1.6286 L 0.2000,2.0929 L 0.4857,1.8429 L 0.4857,1.9500 L 0.5214,2.0214 L 0.5571,2.0571 L 0.6286,2.0929 L 0.8071,2.0929 L 0.8786,2.0571 L 0.9143,2.0214 L 0.9500,1.9500 L 0.9500,1.7357 L 0.9143,1.6643 L 0.8786,1.6286" fill="none" stroke="black" stroke-width="0.025"/></g>
</svg>