<svg xmlns="http://www.w3.org/2000/svg" viewBox="0 0 1.4000 8.5964" width="560" height="3439">
<rect width="100%" height="100%" fill="white"/>
<g><path d="M 0.5810,0.2714 L 0.5333,0.3726 L 0.5333,0.5631 L 0.5810,0.6524 L 0.6286,0.6940 L 0.7238,0.7298 L 1.0095,0.6940 L 1.1048,0.6345 L 1.1524,0.5810 L 1.2000,0.4798 L 1.2000,0.2893 L 1.1524,0.2000" fill="none" stroke="black" stroke-width="0.025"/>
<path d="M 1.2000,1.5274 L 0.6762,1.5929 L 0.5810,1.5571 L 0.5333,1.4679 L 0.5333,1.3250 L 0.5810,1.2238 L 0.6286,1.1702" fill="none" stroke="black" stroke-width="0.025"/>
<path d="M 0.2000,2.1286 L 0.2476,2.0750 L 0.2952,2.1167 L 0.2476,2.1702 L 0.2000,2.1286 L 0.2952,2.1167" fill="none" stroke="black" stroke-width="0.025"/>
<path d="M 1.2000,2.6226 L 1.1524,2.5333 L 1.0571,2.4976 L 0.2000,2.6048" fill="none" stroke="black" stroke-width="0.025"/>
<path d="M 1.1524,2.9619 L 1.2000,3.0512 L 1.2000,3.2417 L 1.1524,3.3429 L 1.0571,3.4024 L 1.0095,3.4083 L 0.9143,3.3726 L 0.8667,3.2833 L 0.8667,3.1405 L 0.8190,3.0512 L 0.7238,3.0155 L 0.6762,3.0214 L 0.5810,3.0810 L 0.5333,3.1821 L 0.5333,3.3250 L 0.5810,3.4143" fill="none" stroke="black" stroke-width="0.025"/>
<path d="M 1.2000,4.2417 L 0.6762,4.3071 L 0.5810,4.2714 L 0.5333,4.1821 L 0.5333,3.9917 L 0.5810,3.8905" fill="none" stroke="black" stroke-width="0.025"/>
<path d="M 1.1524,4.2476 L 1.2000,4.1464 L 1.2000,3.9083 L 1.1524,3.8190 L 1.0571,3.7833 L 0.9619,3.7952 L 0.8667,3.8548 L 0.8190,3.9560 L 0.8190,4.1940 L 0.7714,4.2952" fill="none" stroke="black" stroke-width="0.025"/>
<path d="M 1.2000,4.8607 L 1.1524,4.7714 L 1.0571,4.7357 L 0.2000,4.8429" fill="none" stroke="black" stroke-width="0.025"/>
<path d="M 1.1048,5.2536 L 1.1524,5.2952 L 1.2000,5.2417 L 1.1524,5.2000 L 1.1048,5.2536 L 1.2000,5.2417" fill="none" stroke="black" stroke-width="0.025"/>
<path d="M 1.1524,6.1524 L 1.2000,6.0512 L 1.2000,5.8607 L 1.1524,5.7714 L 1.1048,5.7298 L 1.0095,5.6940 L 0.7238,5.7298 L 0.6286,5.7893 L 0.5810,5.8429 L 0.5333,5.9440 L 0.5333,6.1345 L 0.5810,6.2238" fill="none" stroke="black" stroke-width="0.025"/>
<path d="M 1.2000,6.7179 L 1.1524,6.6286 L 1.1048,6.5869 L 1.0095,6.5512 L 0.7238,6.5869 L 0.6286,6.6464 L 0.5810,6.7000 L 0.5333,6.8012 L 0.5333,6.9440 L 0.5810,7.0333 L 0.6286,7.0750 L 0.7238,7.1107 L 1.0095,7.0750 L 1.1048,7.0155 L 1.1524,6.9619 L 1.2000,6.8607 L 1.2000,6.7179" fill="none" stroke="black" stroke-width="0.025"/>
<path d="M 1.1048,7.4917 L 1.1524,7.5333 L 1.2000,7.4798 L 1.1524,7.4381 L 1.1048,7.4917 L 1.2000,7.4798" fill="none" stroke="black" stroke-width="0.025"/>
<path d="M 0.5333,8.0393 L 1.0571,7.9738 L 1.1524,8.0095 L 1.2000,8.0988 L 1.2000,8.2417 L 1.1524,8.3429 L 1.1048,8.3964" fill="none" stroke="black" stroke-width="0.025"/></g>
</svg>