<svg xmlns="http://www.w3.org/2000/svg" viewBox="0 0 2.4200 2.4357" width="968" height="974">
<rect width="100%" height="100%" fill="white"/>
<g><path d="M 2.2200,0.2000 L 1.4700,0.2000 L 1.4700,0.4857 L 1.5057,0.5571 L 1.5414,0.5929 L 1.6129,0.6286 L 1.7200,0.6286 L 1.7914,0.5929 L 1.8271,0.5571 L 1.8629,0.4857 L 1.8629,0.2000" fill="none" stroke="black" stroke-width="0.025"/>
<path d="M 1.4700,0.8786 L 2.2200,1.0571 L 1.6843,1.2000 L 2.2200,1.3429 L 1.4700,1.5214" fill="none" stroke="black" stroke-width="0.025"/>
<path d="M 2.2200,1.8071 L 1.4700,1.8071 L 1.4700,2.0929 L 1.5057,2.1643 L 1.5414,2.2000 L 1.6129,2.2357 L 1.7200,2.2357 L 1.7914,2.2000 L 1.8271,2.1643 L 1.8629,2.0929 L 1.8629,1.8071" fill="none" stroke="black" stroke-width="0.025"/>
<path d="M 0.2357,0.6286 L 0.2000,0.5571 L 0.2000,0.4500 L 0.2357,0.3429 L 0.3071,0.2714 L 0.3786,0.2357 L 0.5214,0.2000 L 0.6286,0.2000 L 0.7714,0.2357 L 0.8429,0.2714 L 0.9143,0.3429 L 0.9500,0.4500 L 0.9500,0.5214 L 0.9143,0.6286 L 0.8786,0.6643 L 0.6286,0.6643 L 0.6286,0.5214" fill="none" stroke="black" stroke-width="0.025"/>
<path d="M 0.9500,0.9857 L 0.2000,0.9857 L 0.9500,1.4143 L 0.2000,1.4143" fill="none" stroke="black" stroke-width="0.025"/>
<path d="M 0.9500,1.7714 L 0.2000,1.7714 L 0.2000,1.9500 L 0.2357,2.0571 L 0.3071,2.1286 L 0.3786,2.1643 L 0.5214,2.2000 L 0.6286,2.2000 L 0.7714,2.1643 L 0.8429,2.1286 L 0.9143,2.0571 L 0.9500,1.9500 L 0.9500,1.7714" fill="none" stroke="black" stroke-width="0.025"/></g>
</svg>