<svg xmlns="http://www.w3.org/2000/svg" viewBox="0 0 4.0639 1.7144" width="1626" height="686">
<rect width="100%" height="100%" fill="white"/>
<g><path d="M 3.3686,0.6000 L 3.3686,0.2000 L 3.4639,0.2000 L 3.5210,0.2190 L 3.5591,0.2571 L 3.5782,0.2952 L 3.5972,0.3714 L 3.5972,0.4286 L 3.5782,0.5048 L 3.5591,0.5429 L 3.5210,0.5810 L 3.4639,0.6000 L 3.3686,0.6000" fill="none" stroke="black" stroke-width="0.025"/>
<path d="M 3.8639,0.6000 L 3.8639,0.2000 L 3.8258,0.2571 L 3.7877,0.2952 L 3.7496,0.3143" fill="none" stroke="black" stroke-width="0.025"/>
<path d="M 0.4476,1.4763 L 0.4286,1.4954 L 0.3714,1.5144 L 0.3333,1.5144 L 0.2762,1.4954 L 0.2381,1.4573 L 0.2190,1.4192 L 0.2000,1.3430 L 0.2000,1.2858 L 0.2190,1.2096 L 0.2381,1.1715 L 0.2762,1.1334 L 0.3333,1.1144 L 0.3714,1.1144 L 0.4286,1.1334 L 0.4476,1.1525" fill="none" stroke="black" stroke-width="0.025"/>
<path d="M 1.5525,1.4763 L 1.5335,1.4954 L 1.4764,1.5144 L 1.4383,1.5144 L 1.3811,1.4954 L 1.3430,1.4573 L 1.3240,1.4192 L 1.3049,1.3430 L 1.3049,1.2858 L 1.3240,1.2096 L 1.3430,1.1715 L 1.3811,1.1334 L 1.4383,1.1144 L 1.4764,1.1144 L 1.5335,1.1334 L 1.5525,1.1525" fill="none" stroke="black" stroke-width="0.025"/>
<path d="M 1.8192,1.5144 L 1.8192,1.1144 L 1.7811,1.1715 L 1.7430,1.2096 L 1.7049,1.2287" fill="none" stroke="black" stroke-width="0.025"/>
<path d="M 2.1811,1.1144 L 2.2192,1.1144 L 2.2573,1.1334 L 2.2764,1.1525 L 2.2954,1.1906 L 2.3144,1.2668 L 2.3144,1.3620 L 2.2954,1.4382 L 2.2764,1.4763 L 2.2573,1.4954 L 2.2192,1.5144 L 2.1811,1.5144 L 2.1430,1.4954 L 2.1240,1.4763 L 2.1049,1.4382 L 2.0859,1.3620 L 2.0859,1.2668 L 2.1049,1.1906 L 2.1240,1.1525 L 2.1430,1.1334 L 2.1811,1.1144" fill="none" stroke="black" stroke-width="0.025"/>
<path d="M 0.6381,1.5144 L 0.7143,1.5144 L 0.7524,1.4954 L 0.7714,1.4763 L 0.8095,1.4192 L 0.8286,1.3430 L 0.8286,1.1906 L 0.8095,1.1525 L 0.7905,1.1334 L 0.7524,1.1144 L 0.6762,1.1144 L 0.6381,1.1334 L 0.6190,1.1525 L 0.6000,1.1906 L 0.6000,1.2858 L 0.6190,1.3239 L 0.6381,1.3430 L 0.6762,1.3620 L 0.7524,1.3620 L 0.7905,1.3430 L 0.8095,1.3239 L 0.8286,1.2858" fill="none" stroke="black" stroke-width="0.025"/></g>
</svg>