<svg xmlns="http://www.w3.org/2000/svg" viewBox="0 0 4.0027 1.5501" width="1601" height="620">
<rect width="100%" height="100%" fill="white"/>
<g><path d="M 3.0217,0.5810 L 3.0027,0.6000 L 2.9455,0.6190 L 2.9074,0.6190 L 2.8503,0.6000 L 2.8122,0.5619 L 2.7931,0.5238 L 2.7741,0.4476 L 2.7741,0.3905 L 2.7931,0.3143 L 2.8122,0.2762 L 2.8503,0.2381 L 2.9074,0.2190 L 2.9455,0.2190 L 3.0027,0.2381 L 3.0217,0.2571" fill="none" stroke="black" stroke-width="0.025"/>
<path d="M 3.1741,0.2571 L 3.1931,0.2381 L 3.2312,0.2190 L 3.3265,0.2190 L 3.3646,0.2381 L 3.3836,0.2571 L 3.4027,0.2952 L 3.4027,0.3333 L 3.3836,0.3905 L 3.1550,0.6190 L 3.4027,0.6190" fill="none" stroke="black" stroke-width="0.025"/>
<path d="M 3.6503,0.2000 L 3.5550,0.4857 L 3.8027,0.4857" fill="none" stroke="black" stroke-width="0.025"/>
<path d="M 0.2000,1.3501 L 0.2000,0.8501 L 0.3667,1.2072 L 0.5333,0.8501 L 0.5333,1.3501" fill="none" stroke="black" stroke-width="0.025"/>
<path d="M 0.7000,1.3501 L 0.8667,0.8501 L 1.0333,1.3501" fill="none" stroke="black" stroke-width="0.025"/>
<path d="M 1.4619,0.8739 L 1.4143,0.8501 L 1.3429,0.8501 L 1.2714,0.8739 L 1.2238,0.9215 L 1.2000,0.9691 L 1.1762,1.0644 L 1.1762,1.1358 L 1.2000,1.2310 L 1.2238,1.2787 L 1.2714,1.3263 L 1.3429,1.3501 L 1.3905,1.3501 L 1.4619,1.3263 L 1.4857,1.3025 L 1.4857,1.1358 L 1.3905,1.1358" fill="none" stroke="black" stroke-width="0.025"/>
<path d="M 1.8190,1.3501 L 1.8190,0.8501 L 1.7714,0.9215 L 1.7238,0.9691 L 1.6762,0.9929" fill="none" stroke="black" stroke-width="0.025"/></g>
</svg>