<svg xmlns="http://www.w3.org/2000/svg" viewBox="0 0 8.6325 2.8510" width="3453" height="1140">
<rect width="100%" height="100%" fill="white"/>
<g><path d="M 0.4381,0.9754 L 0.2000,0.9754 L 0.2000,0.4754 L 0.4381,0.4754" fill="none" stroke="black" stroke-width="0.025"/>
<path d="M 0.8905,0.9754 L 0.6524,0.9754 L 0.6524,0.4754 L 0.8905,0.4754" fill="none" stroke="black" stroke-width="0.025"/>
<path d="M 1.1048,0.9754 L 1.1048,0.4754 L 1.2952,0.4754 L 1.3429,0.4992 L 1.3667,0.5231 L 1.3905,0.5707 L 1.3905,0.6421 L 1.3667,0.6897 L 1.3429,0.7135 L 1.2952,0.7373 L 1.1048,0.7373" fill="none" stroke="black" stroke-width="0.025"/>
<path d="M 1.6048,0.9754 L 1.6048,0.4754 L 1.7952,0.4754 L 1.8429,0.4992 L 1.8667,0.5231 L 1.8905,0.5707 L 1.8905,0.6421 L 1.8667,0.6897 L 1.8429,0.7135 L 1.7952,0.7373 L 1.6048,0.7373" fill="none" stroke="black" stroke-width="0.025"/>
<path d="M 2.2000,0.4754 L 2.2952,0.4754 L 2.3429,0.4992 L 2.3905,0.5469 L 2.4143,0.6421 L 2.4143,0.8088 L 2.3905,0.9040 L 2.3429,0.9516 L 2.2952,0.9754 L 2.2000,0.9754 L 2.1524,0.9516 L 2.1048,0.9040 L 2.0810,0.8088 L 2.0810,0.6421 L 2.1048,0.5469 L 2.1524,0.4992 L 2.2000,0.4754" fill="none" stroke="black" stroke-width="0.025"/>
<path d="M 2.6286,0.9754 L 2.6286,0.4754 L 2.7952,0.8326 L 2.9619,0.4754 L 2.9619,0.9754" fill="none" stroke="black" stroke-width="0.025"/>
<path d="M 3.3190,0.9754 L 3.3190,0.4754 L 3.2714,0.5469 L 3.2238,0.5945 L 3.1762,0.6183" fill="none" stroke="black" stroke-width="0.025"/>
<path d="M 5.3878,0.6000 L 5.3878,0.2000 L 5.5402,0.2000 L 5.5783,0.2190 L 5.5974,0.2381 L 5.6164,0.2762 L 5.6164,0.3333 L 5.5974,0.3714 L 5.5783,0.3905 L 5.5402,0.4095 L 5.3878,0.4095" fill="none" stroke="black" stroke-width="0.025"/>
<path d="M 5.7497,0.2000 L 5.8450,0.6000 L 5.9212,0.3143 L 5.9974,0.6000 L 6.0926,0.2000" fill="none" stroke="black" stroke-width="0.025"/>
<path d="M 6.2450,0.6000 L 6.2450,0.2000 L 6.3974,0.2000 L 6.4355,0.2190 L 6.4545,0.2381 L 6.4736,0.2762 L 6.4736,0.3333 L 6.4545,0.3714 L 6.4355,0.3905 L 6.3974,0.4095 L 6.2450,0.4095" fill="none" stroke="black" stroke-width="0.025"/>
<path d="M 6.7402,0.6000 L 6.7402,0.2000 L 6.7021,0.2571 L 6.6640,0.2952 L 6.6259,0.3143" fill="none" stroke="black" stroke-width="0.025"/>
<path d="M 7.8230,0.7778 L 7.8230,0.3778 L 7.9754,0.3778 L 8.0135,0.3968 L 8.0325,0.4159 L 8.0516,0.4540 L 8.0516,0.5111 L 8.0325,0.5492 L 8.0135,0.5683 L 7.9754,0.5873 L 7.8230,0.5873" fill="none" stroke="black" stroke-width="0.025"/>
<path d="M 8.1849,0.3778 L 8.4325,0.3778 L 8.2992,0.5302 L 8.3563,0.5302 L 8.3944,0.5492 L 8.4135,0.5683 L 8.4325,0.6064 L 8.4325,0.7016 L 8.4135,0.7397 L 8.3944,0.7588 L 8.3563,0.7778 L 8.2421,0.7778 L 8.2040,0.7588 L 8.1849,0.7397" fill="none" stroke="black" stroke-width="0.025"/>
<path d="M 4.8829,2.4034 L 4.9020,2.4224 L 4.9210,2.4796 L 4.9210,2.5177 L 4.9020,2.5748 L 4.8639,2.6129 L 4.8258,2.6320 L 4.7496,2.6510 L 4.6924,2.6510 L 4.6162,2.6320 L 4.5781,2.6129 L 4.5400,2.5748 L 4.5210,2.5177 L 4.5210,2.4796 L 4.5400,2.4224 L 4.5591,2.4034" fill="none" stroke="black" stroke-width="0.025"/>
<path d="M 4.9210,2.1367 L 4.5210,2.1367 L 4.5781,2.1748 L 4.6162,2.2129 L 4.6353,2.2510" fill="none" stroke="black" stroke-width="0.025"/>
<path d="M 4.9210,1.8320 L 4.9210,1.7558 L 4.9020,1.7177 L 4.8829,1.6986 L 4.8258,1.6605 L 4.7496,1.6415 L 4.5972,1.6415 L 4.5591,1.6605 L 4.5400,1.6796 L 4.5210,1.7177 L 4.5210,1.7939 L 4.5400,1.8320 L 4.5591,1.8510 L 4.5972,1.8701 L 4.6924,1.8701 L 4.7305,1.8510 L 4.7496,1.8320 L 4.7686,1.7939 L 4.7686,1.7177 L 4.7496,1.6796 L 4.7305,1.6605 L 4.6924,1.6415" fill="none" stroke="black" stroke-width="0.025"/></g>
</svg>