<svg xmlns="http://www.w3.org/2000/svg" viewBox="0 0 6.5340 0.8000" width="2614" height="320">
<rect width="100%" height="100%" fill="white"/>
<g><path d="M 4.4417,0.6000 L 4.4417,0.2000 L 4.4036,0.2571 L 4.3655,0.2952 L 4.3274,0.3143" fill="none" stroke="black" stroke-width="0.025"/>
<path d="M 5.3435,0.6000 L 5.3435,0.2000 L 5.4959,0.2000 L 5.5340,0.2190 L 5.5530,0.2381 L 5.5721,0.2762 L 5.5721,0.3333 L 5.5530,0.3714 L 5.5340,0.3905 L 5.4959,0.4095 L 5.3435,0.4095" fill="none" stroke="black" stroke-width="0.025"/>
<path d="M 5.8388,0.6000 L 5.8388,0.2000 L 5.8007,0.2571 L 5.7626,0.2952 L 5.7245,0.3143" fill="none" stroke="black" stroke-width="0.025"/>
<path d="M 6.1054,0.2381 L 6.1245,0.2190 L 6.1626,0.2000 L 6.2578,0.2000 L 6.2959,0.2190 L 6.3150,0.2381 L 6.3340,0.2762 L 6.3340,0.3143 L 6.3150,0.3714 L 6.0864,0.6000 L 6.3340,0.6000" fill="none" stroke="black" stroke-width="0.025"/>
<path d="M 0.2000,0.6000 L 0.2000,0.2000 L 0.3524,0.2000 L 0.3905,0.2190 L 0.4095,0.2381 L 0.4286,0.2762 L 0.4286,0.3333 L 0.4095,0.3714 L 0.3905,0.3905 L 0.3524,0.4095 L 0.2000,0.4095" fill="none" stroke="black" stroke-width="0.025"/>
<path d="M 0.6190,0.6000 L 0.6952,0.6000 L 0.7333,0.5810 L 0.7524,0.5619 L 0.7905,0.5048 L 0.8095,0.4286 L 0.8095,0.2762 L 0.7905,0.2381 L 0.7714,0.2190 L 0.7333,0.2000 L 0.6571,0.2000 L 0.6190,0.2190 L 0.6000,0.2381 L 0.5810,0.2762 L 0.5810,0.3714 L 0.6000,0.4095 L 0.6190,0.4286 L 0.6571,0.4476 L 0.7333,0.4476 L 0.7714,0.4286 L 0.7905,0.4095 L 0.8095,0.3714" fill="none" stroke="black" stroke-width="0.025"/>
<path d="M 1.7875,0.6000 L 1.7875,0.2000 L 1.9399,0.2000 L 1.9780,0.2190 L 1.9970,0.2381 L 2.0161,0.2762 L 2.0161,0.3333 L 1.9970,0.3714 L 1.9780,0.3905 L 1.9399,0.4095 L 1.7875,0.4095" fill="none" stroke="black" stroke-width="0.025"/>
<path d="M 2.2828,0.6000 L 2.2828,0.2000 L 2.2447,0.2571 L 2.2066,0.2952 L 2.1685,0.3143" fill="none" stroke="black" stroke-width="0.025"/>
<path d="M 2.6447,0.2000 L 2.6828,0.2000 L 2.7209,0.2190 L 2.7399,0.2381 L 2.7590,0.2762 L 2.7780,0.3524 L 2.7780,0.4476 L 2.7590,0.5238 L 2.7399,0.5619 L 2.7209,0.5810 L 2.6828,0.6000 L 2.6447,0.6000 L 2.6066,0.5810 L 2.5875,0.5619 L 2.5685,0.5238 L 2.5494,0.4476 L 2.5494,0.3524 L 2.5685,0.2762 L 2.5875,0.2381 L 2.6066,0.2190 L 2.6447,0.2000" fill="none" stroke="black" stroke-width="0.025"/>
<path d="M 3.5655,0.6000 L 3.5655,0.2000 L 3.7179,0.2000 L 3.7560,0.2190 L 3.7750,0.2381 L 3.7941,0.2762 L 3.7941,0.3333 L 3.7750,0.3714 L 3.7560,0.3905 L 3.7179,0.4095 L 3.5655,0.4095" fill="none" stroke="black" stroke-width="0.025"/>
<path d="M 4.0608,0.6000 L 4.0608,0.2000 L 4.0227,0.2571 L 3.9846,0.2952 L 3.9465,0.3143" fill="none" stroke="black" stroke-width="0.025"/></g>
</svg>