<svg xmlns="http://www.w3.org/2000/svg" viewBox="0 0 2.7557 0.8000" width="1102" height="320">
<rect width="100%" height="100%" fill="white"/>
<g><path d="M 0.4476,0.5619 L 0.4286,0.5810 L 0.3714,0.6000 L 0.3333,0.6000 L 0.2762,0.5810 L 0.2381,0.5429 L 0.2190,0.5048 L 0.2000,0.4286 L 0.2000,0.3714 L 0.2190,0.2952 L 0.2381,0.2571 L 0.2762,0.2190 L 0.3333,0.2000 L 0.3714,0.2000 L 0.4286,0.2190 L 0.4476,0.2381" fill="none" stroke="black" stroke-width="0.025"/>
<path d="M 0.7143,0.6000 L 0.7143,0.2000 L 0.6762,0.2571 L 0.6381,0.2952 L 0.6000,0.3143" fill="none" stroke="black" stroke-width="0.025"/>
<path d="M 1.1905,0.2000 L 1.0000,0.2000 L 0.9810,0.3905 L 1.0000,0.3714 L 1.0381,0.3524 L 1.1333,0.3524 L 1.1714,0.3714 L 1.1905,0.3905 L 1.2095,0.4286 L 1.2095,0.5238 L 1.1905,0.5619 L 1.1714,0.5810 L 1.1333,0.6000 L 1.0381,0.6000 L 1.0000,0.5810 L 0.9810,0.5619" fill="none" stroke="black" stroke-width="0.025"/>
<path d="M 1.7938,0.5619 L 1.7748,0.5810 L 1.7176,0.6000 L 1.6795,0.6000 L 1.6224,0.5810 L 1.5843,0.5429 L 1.5652,0.5048 L 1.5462,0.4286 L 1.5462,0.3714 L 1.5652,0.2952 L 1.5843,0.2571 L 1.6224,0.2190 L 1.6795,0.2000 L 1.7176,0.2000 L 1.7748,0.2190 L 1.7938,0.2381" fill="none" stroke="black" stroke-width="0.025"/>
<path d="M 2.0605,0.6000 L 2.0605,0.2000 L 2.0224,0.2571 L 1.9843,0.2952 L 1.9462,0.3143" fill="none" stroke="black" stroke-width="0.025"/>
<path d="M 2.5176,0.2000 L 2.4414,0.2000 L 2.4033,0.2190 L 2.3843,0.2381 L 2.3462,0.2952 L 2.3272,0.3714 L 2.3272,0.5238 L 2.3462,0.5619 L 2.3652,0.5810 L 2.4033,0.6000 L 2.4795,0.6000 L 2.5176,0.5810 L 2.5367,0.5619 L 2.5557,0.5238 L 2.5557,0.4286 L 2.5367,0.3905 L 2.5176,0.3714 L 2.4795,0.3524 L 2.4033,0.3524 L 2.3652,0.3714 L 2.3462,0.3905 L 2.3272,0.4286" fill="none" stroke="black" stroke-width="0.025"/></g>
</svg>