<svg xmlns="http://www.w3.org/2000/svg" viewBox="0 0 1.0476 1.9430" width="419" height="777">
<rect width="100%" height="100%" fill="white"/>
<g><path d="M 0.4476,1.7049 L 0.4286,1.7240 L 0.3714,1.7430 L 0.3333,1.7430 L 0.2762,1.7240 L 0.2381,1.6859 L 0.2190,1.6478 L 0.2000,1.5716 L 0.2000,1.5144 L 0.2190,1.4382 L 0.2381,1.4001 L 0.2762,1.3620 L 0.3333,1.3430 L 0.3714,1.3430 L 0.4286,1.3620 L 0.4476,1.3811" fill="none" stroke="black" stroke-width="0.025"/>
<path d="M 0.6762,1.5144 L 0.6381,1.4954 L 0.6190,1.4763 L 0.6000,1.4382 L 0.6000,1.4192 L 0.6190,1.3811 L 0.6381,1.3620 L 0.6762,1.3430 L 0.7524,1.3430 L 0.7905,1.3620 L 0.8095,1.3811 L 0.8286,1.4192 L 0.8286,1.4382 L 0.8095,1.4763 L 0.7905,1.4954 L 0.7524,1.5144 L 0.6762,1.5144 L 0.6381,1.5335 L 0.6190,1.5525 L 0.6000,1.5906 L 0.6000,1.6668 L 0.6190,1.7049 L 0.6381,1.7240 L 0.6762,1.7430 L 0.7524,1.7430 L 0.7905,1.7240 L 0.8095,1.7049 L 0.8286,1.6668 L 0.8286,1.5906 L 0.8095,1.5525 L 0.7905,1.5335 L 0.7524,1.5144" fill="none" stroke="black" stroke-width="0.025"/>
<path d="M 0.4476,0.5619 L 0.4286,0.5810 L 0.3714,0.6000 L 0.3333,0.6000 L 0.2762,0.5810 L 0.2381,0.5429 L 0.2190,0.5048 L 0.2000,0.4286 L 0.2000,0.3714 L 0.2190,0.2952 L 0.2381,0.2571 L 0.2762,0.2190 L 0.3333,0.2000 L 0.3714,0.2000 L 0.4286,0.2190 L 0.4476,0.2381" fill="none" stroke="black" stroke-width="0.025"/>
<path d="M 0.5810,0.2000 L 0.8476,0.2000 L 0.6762,0.6000" fill="none" stroke="black" stroke-width="0.025"/></g>
</svg>