<svg xmlns="http://www.w3.org/2000/svg" viewBox="0 0 1.4000 5.4476" width="560" height="2179">
<rect width="100%" height="100%" fill="white"/>
<g><path d="M 1.1524,5.2476 L 1.2000,5.1048 L 1.2000,4.8667 L 1.1524,4.7714 L 1.1048,4.7238 L 1.0095,4.6762 L 0.9143,4.6762 L 0.8190,4.7238 L 0.7714,4.7714 L 0.7238,4.8667 L 0.6762,5.0571 L 0.6286,5.1524 L 0.5810,5.2000 L 0.4857,5.2476 L 0.3905,5.2476 L 0.2952,5.2000 L 0.2476,5.1524 L 0.2000,5.0571 L 0.2000,4.8190 L 0.2476,4.6762" fill="none" stroke="black" stroke-width="0.025"/>
<path d="M 1.2000,3.7714 L 1.2000,4.2476 L 0.2000,4.2476 L 0.2000,3.7714" fill="none" stroke="black" stroke-width="0.025"/>
<path d="M 1.2000,3.3429 L 0.2000,3.3429 L 0.2000,2.9619 L 0.2476,2.8667 L 0.2952,2.8190 L 0.3905,2.7714 L 0.5333,2.7714 L 0.6286,2.8190 L 0.6762,2.8667 L 0.7238,2.9619 L 0.7238,3.3429" fill="none" stroke="black" stroke-width="0.025"/>
<path d="M 0.2000,2.4857 L 1.2000,2.1524 L 0.2000,1.8190" fill="none" stroke="black" stroke-width="0.025"/>
<path d="M 0.2000,1.2952 L 0.2000,1.1048 L 0.2476,1.0095 L 0.3429,0.9143 L 0.5333,0.8667 L 0.8667,0.8667 L 1.0571,0.9143 L 1.1524,1.0095 L 1.2000,1.1048 L 1.2000,1.2952 L 1.1524,1.3905 L 1.0571,1.4857 L 0.8667,1.5333 L 0.5333,1.5333 L 0.3429,1.4857 L 0.2476,1.3905 L 0.2000,1.2952" fill="none" stroke="black" stroke-width="0.025"/>
<path d="M 1.2000,0.2000 L 0.2000,0.2000 L 0.3429,0.2952 L 0.4381,0.3905 L 0.4857,0.4857" fill="none" stroke="black" stroke-width="0.025"/></g>
</svg>