<svg xmlns="http://www.w3.org/2000/svg" viewBox="0 0 3.5786 1.1500" width="1431" height="460">
<rect width="100%" height="100%" fill="white"/>
<g><path d="M 0.2000,0.9143 L 0.3071,0.9500 L 0.4857,0.9500 L 0.5571,0.9143 L 0.5929,0.8786 L 0.6286,0.8071 L 0.6286,0.7357 L 0.5929,0.6643 L 0.5571,0.6286 L 0.4857,0.5929 L 0.3429,0.5571 L 0.2714,0.5214 L 0.2357,0.4857 L 0.2000,0.4143 L 0.2000,0.3429 L 0.2357,0.2714 L 0.2714,0.2357 L 0.3429,0.2000 L 0.5214,0.2000 L 0.6286,0.2357" fill="none" stroke="black" stroke-width="0.025"/>
<path d="M 1.2000,0.5571 L 1.3071,0.5929 L 1.3429,0.6286 L 1.3786,0.7000 L 1.3786,0.8071 L 1.3429,0.8786 L 1.3071,0.9143 L 1.2357,0.9500 L 0.9500,0.9500 L 0.9500,0.2000 L 1.2000,0.2000 L 1.2714,0.2357 L 1.3071,0.2714 L 1.3429,0.3429 L 1.3429,0.4143 L 1.3071,0.4857 L 1.2714,0.5214 L 1.2000,0.5571 L 0.9500,0.5571" fill="none" stroke="black" stroke-width="0.025"/>
<path d="M 1.7000,0.2000 L 1.7000,0.8071 L 1.7357,0.8786 L 1.7714,0.9143 L 1.8429,0.9500 L 1.9857,0.9500 L 2.0571,0.9143 L 2.0929,0.8786 L 2.1286,0.8071 L 2.1286,0.2000" fill="none" stroke="black" stroke-width="0.025"/>
<path d="M 2.4500,0.9143 L 2.5571,0.9500 L 2.7357,0.9500 L 2.8071,0.9143 L 2.8429,0.8786 L 2.8786,0.8071 L 2.8786,0.7357 L 2.8429,0.6643 L 2.8071,0.6286 L 2.7357,0.5929 L 2.5929,0.5571 L 2.5214,0.5214 L 2.4857,0.4857 L 2.4500,0.4143 L 2.4500,0.3429 L 2.4857,0.2714 L 2.5214,0.2357 L 2.5929,0.2000 L 2.7714,0.2000 L 2.8786,0.2357" fill="none" stroke="black" stroke-width="0.025"/>
<path d="M 3.3786,0.9500 L 3.3786,0.2000 L 3.3071,0.3071 L 3.2357,0.3786 L 3.1643,0.4143" fill="none" stroke="black" stroke-width="0.025"/></g>
</svg>