<svg xmlns="http://www.w3.org/2000/svg" viewBox="0 0 2.9653 1.6382" width="1186" height="655">
<rect width="100%" height="100%" fill="white"/>
<g><path d="M 2.2891,1.2287 L 2.3462,1.2477 L 2.3653,1.2668 L 2.3843,1.3049 L 2.3843,1.3620 L 2.3653,1.4001 L 2.3462,1.4192 L 2.3081,1.4382 L 2.1558,1.4382 L 2.1558,1.0382 L 2.2891,1.0382 L 2.3272,1.0572 L 2.3462,1.0763 L 2.3653,1.1144 L 2.3653,1.1525 L 2.3462,1.1906 L 2.3272,1.2096 L 2.2891,1.2287 L 2.1558,1.2287" fill="none" stroke="black" stroke-width="0.025"/>
<path d="M 2.5367,1.0763 L 2.5558,1.0572 L 2.5938,1.0382 L 2.6891,1.0382 L 2.7272,1.0572 L 2.7462,1.0763 L 2.7653,1.1144 L 2.7653,1.1525 L 2.7462,1.2096 L 2.5177,1.4382 L 2.7653,1.4382" fill="none" stroke="black" stroke-width="0.025"/>
<path d="M 0.4476,0.5619 L 0.4286,0.5810 L 0.3714,0.6000 L 0.3333,0.6000 L 0.2762,0.5810 L 0.2381,0.5429 L 0.2190,0.5048 L 0.2000,0.4286 L 0.2000,0.3714 L 0.2190,0.2952 L 0.2381,0.2571 L 0.2762,0.2190 L 0.3333,0.2000 L 0.3714,0.2000 L 0.4286,0.2190 L 0.4476,0.2381" fill="none" stroke="black" stroke-width="0.025"/>
<path d="M 0.5810,0.2000 L 0.8286,0.2000 L 0.6952,0.3524 L 0.7524,0.3524 L 0.7905,0.3714 L 0.8095,0.3905 L 0.8286,0.4286 L 0.8286,0.5238 L 0.8095,0.5619 L 0.7905,0.5810 L 0.7524,0.6000 L 0.6381,0.6000 L 0.6000,0.5810 L 0.5810,0.5619" fill="none" stroke="black" stroke-width="0.025"/>
<path d="M 0.9619,0.2000 L 1.2095,0.2000 L 1.0762,0.3524 L 1.1333,0.3524 L 1.1714,0.3714 L 1.1905,0.3905 L 1.2095,0.4286 L 1.2095,0.5238 L 1.1905,0.5619 L 1.1714,0.5810 L 1.1333,0.6000 L 1.0190,0.6000 L 0.9810,0.5810 L 0.9619,0.5619" fill="none" stroke="black" stroke-width="0.025"/>
<path d="M 1.8129,1.4382 L 1.8129,1.0382 L 2.0034,1.0382" fill="none" stroke="black" stroke-width="0.025"/></g>
</svg>