<svg xmlns="http://www.w3.org/2000/svg" viewBox="0 0 4.5846 0.8254" width="1834" height="330">
<rect width="100%" height="100%" fill="white"/>
<g><path d="M 0.2000,0.6000 L 0.2000,0.2000 L 0.2952,0.2000 L 0.3524,0.2190 L 0.3905,0.2571 L 0.4095,0.2952 L 0.4286,0.3714 L 0.4286,0.4286 L 0.4095,0.5048 L 0.3905,0.5429 L 0.3524,0.5810 L 0.2952,0.6000 L 0.2000,0.6000" fill="none" stroke="black" stroke-width="0.025"/>
<path d="M 0.5810,0.2381 L 0.6000,0.2190 L 0.6381,0.2000 L 0.7333,0.2000 L 0.7714,0.2190 L 0.7905,0.2381 L 0.8095,0.2762 L 0.8095,0.3143 L 0.7905,0.3714 L 0.5619,0.6000 L 0.8095,0.6000" fill="none" stroke="black" stroke-width="0.025"/>
<path d="M 1.9780,0.6254 L 1.9780,0.2254 L 2.0732,0.2254 L 2.1304,0.2444 L 2.1685,0.2825 L 2.1875,0.3206 L 2.2066,0.3968 L 2.2066,0.4540 L 2.1875,0.5302 L 2.1685,0.5683 L 2.1304,0.6064 L 2.0732,0.6254 L 1.9780,0.6254" fill="none" stroke="black" stroke-width="0.025"/>
<path d="M 2.3399,0.2254 L 2.5875,0.2254 L 2.4542,0.3778 L 2.5113,0.3778 L 2.5494,0.3968 L 2.5685,0.4159 L 2.5875,0.4540 L 2.5875,0.5492 L 2.5685,0.5873 L 2.5494,0.6064 L 2.5113,0.6254 L 2.3970,0.6254 L 2.3590,0.6064 L 2.3399,0.5873" fill="none" stroke="black" stroke-width="0.025"/>
<path d="M 3.7560,0.6254 L 3.7560,0.2254 L 3.8512,0.2254 L 3.9084,0.2444 L 3.9465,0.2825 L 3.9655,0.3206 L 3.9846,0.3968 L 3.9846,0.4540 L 3.9655,0.5302 L 3.9465,0.5683 L 3.9084,0.6064 L 3.8512,0.6254 L 3.7560,0.6254" fill="none" stroke="black" stroke-width="0.025"/>
<path d="M 4.2322,0.2064 L 4.1370,0.4921 L 4.3846,0.4921" fill="none" stroke="black" stroke-width="0.025"/></g>
</svg>