<svg xmlns="http://www.w3.org/2000/svg" viewBox="0 0 1.4095 0.8000" width="564" height="320">
<rect width="100%" height="100%" fill="white"/>
<g><path d="M 0.4476,0.5619 L 0.4286,0.5810 L 0.3714,0.6000 L 0.3333,0.6000 L 0.2762,0.5810 L 0.2381,0.5429 L 0.2190,0.5048 L 0.2000,0.4286 L 0.2000,0.3714 L 0.2190,0.2952 L 0.2381,0.2571 L 0.2762,0.2190 L 0.3333,0.2000 L 0.3714,0.2000 L 0.4286,0.2190 L 0.4476,0.2381" fill="none" stroke="black" stroke-width="0.025"/>
<path d="M 0.6000,0.2381 L 0.6190,0.2190 L 0.6571,0.2000 L 0.7524,0.2000 L 0.7905,0.2190 L 0.8095,0.2381 L 0.8286,0.2762 L 0.8286,0.3143 L 0.8095,0.3714 L 0.5810,0.6000 L 0.8286,0.6000" fill="none" stroke="black" stroke-width="0.025"/>
<path d="M 1.0571,0.3714 L 1.0190,0.3524 L 1.0000,0.3333 L 0.9810,0.2952 L 0.9810,0.2762 L 1.0000,0.2381 L 1.0190,0.2190 L 1.0571,0.2000 L 1.1333,0.2000 L 1.1714,0.2190 L 1.1905,0.2381 L 1.2095,0.2762 L 1.2095,0.2952 L 1.1905,0.3333 L 1.1714,0.3524 L 1.1333,0.3714 L 1.0571,0.3714 L 1.0190,0.3905 L 1.0000,0.4095 L 0.9810,0.4476 L 0.9810,0.5238 L 1.0000,0.5619 L 1.0190,0.5810 L 1.0571,0.6000 L 1.1333,0.6000 L 1.1714,0.5810 L 1.1905,0.5619 L 1.2095,0.5238 L 1.2095,0.4476 L 1.1905,0.4095 L 1.1714,0.3905 L 1.1333,0.3714" fill="none" stroke="black" stroke-width="0.025"/></g>
</svg>