<svg xmlns="http://www.w3.org/2000/svg" viewBox="0 0 1.4000 0.9714" width="560" height="389">
<rect width="100%" height="100%" fill="white"/>
<g><path d="M 0.7714,0.3905 L 0.8190,0.2952 L 0.8667,0.2476 L 0.9619,0.2000 L 1.0095,0.2000 L 1.1048,0.2476 L 1.1524,0.2952 L 1.2000,0.3905 L 1.2000,0.5810 L 1.1524,0.6762 L 1.1048,0.7238 L 1.0095,0.7714 L 0.9619,0.7714 L 0.8667,0.7238 L 0.8190,0.6762 L 0.7714,0.5810 L 0.7714,0.3905 L 0.7238,0.2952 L 0.6762,0.2476 L 0.5810,0.2000 L 0.3905,0.2000 L 0.2952,0.2476 L 0.2476,0.2952 L 0.2000,0.3905 L 0.2000,0.5810 L 0.2476,0.6762 L 0.2952,0.7238 L 0.3905,0.7714 L 0.5810,0.7714 L 0.6762,0.7238 L 0.7238,0.6762 L 0.7714,0.5810" fill="none" stroke="black" stroke-width="0.025"/></g>
</svg>