<svg xmlns="http://www.w3.org/2000/svg" viewBox="0 0 4.1619 2.9081" width="1665" height="1163">
<rect width="100%" height="100%" fill="white"/>
<g><path d="M 0.2000,2.4224 L 0.2476,2.3986 L 0.3429,2.3748 L 0.4857,2.3748 L 0.5810,2.3986 L 0.6286,2.4462 L 0.6286,2.7081" fill="none" stroke="black" stroke-width="0.025"/>
<path d="M 0.6286,2.4462 L 0.6762,2.3986 L 0.7714,2.3748 L 0.9143,2.3748 L 1.0095,2.3986 L 1.0571,2.4462 L 1.0571,2.7081" fill="none" stroke="black" stroke-width="0.025"/>
<path d="M 1.5333,2.2081 L 1.4857,2.2319 L 1.5333,2.2557 L 1.5810,2.2319 L 1.5333,2.2081 L 1.5333,2.2557" fill="none" stroke="black" stroke-width="0.025"/>
<path d="M 2.4381,2.6843 L 2.3429,2.7081 L 2.1524,2.7081 L 2.0571,2.6843 L 2.0095,2.6605 L 1.9619,2.6129 L 1.9619,2.4700 L 2.0095,2.4224 L 2.0571,2.3986 L 2.1524,2.3748 L 2.3429,2.3748 L 2.4381,2.3986" fill="none" stroke="black" stroke-width="0.025"/>
<path d="M 2.8667,2.4700 L 2.9143,2.4224 L 2.9619,2.3986 L 3.0571,2.3748 L 3.1524,2.3748" fill="none" stroke="black" stroke-width="0.025"/>
<path d="M 3.6286,2.7081 L 3.5333,2.6843 L 3.4857,2.6605 L 3.4381,2.6129 L 3.4381,2.4700 L 3.4857,2.4224 L 3.5333,2.3986 L 3.6286,2.3748 L 3.7714,2.3748 L 3.8667,2.3986 L 3.9143,2.4224 L 3.9619,2.4700 L 3.9619,2.6129 L 3.9143,2.6605 L 3.8667,2.6843 L 3.7714,2.7081 L 3.6286,2.7081" fill="none" stroke="black" stroke-width="0.025"/>
<path d="M 1.5329,1.7000 L 0.3424,1.7000 L 0.3424,0.2000 L 1.5329,0.2000" fill="none" stroke="black" stroke-width="0.025"/>
<path d="M 2.4853,1.6286 L 2.8424,1.7000 L 3.4376,1.7000 L 3.6757,1.6286 L 3.7948,1.5571 L 3.9138,1.4143 L 3.9138,1.2714 L 3.7948,1.1286 L 3.6757,1.0571 L 3.4376,0.9857 L 2.9615,0.9143 L 2.7234,0.8429 L 2.6043,0.7714 L 2.4853,0.6286 L 2.4853,0.4857 L 2.6043,0.3429 L 2.7234,0.2714 L 2.9615,0.2000 L 3.5567,0.2000 L 3.9138,0.2714" fill="none" stroke="black" stroke-width="0.025"/></g>
</svg>