<svg xmlns="http://www.w3.org/2000/svg" viewBox="0 0 4.6027 1.1500" width="1841" height="460">
<rect width="100%" height="100%" fill="white"/>
<g><path d="M 0.2000,0.9500 L 0.2000,0.2000 L 0.5571,0.2000" fill="none" stroke="black" stroke-width="0.025"/>
<path d="M 1.6527,0.9500 L 1.6527,0.2000 L 1.9027,0.7357 L 2.1527,0.2000 L 2.1527,0.9500" fill="none" stroke="black" stroke-width="0.025"/>
<path d="M 2.6527,0.2000 L 2.7956,0.2000 L 2.8670,0.2357 L 2.9384,0.3071 L 2.9741,0.4500 L 2.9741,0.7000 L 2.9384,0.8429 L 2.8670,0.9143 L 2.7956,0.9500 L 2.6527,0.9500 L 2.5813,0.9143 L 2.5099,0.8429 L 2.4741,0.7000 L 2.4741,0.4500 L 2.5099,0.3071 L 2.5813,0.2357 L 2.6527,0.2000" fill="none" stroke="black" stroke-width="0.025"/>
<path d="M 3.2956,0.9500 L 3.2956,0.2000 L 3.4741,0.2000 L 3.5813,0.2357 L 3.6527,0.3071 L 3.6884,0.3786 L 3.7241,0.5214 L 3.7241,0.6286 L 3.6884,0.7714 L 3.6527,0.8429 L 3.5813,0.9143 L 3.4741,0.9500 L 3.2956,0.9500" fill="none" stroke="black" stroke-width="0.025"/>
<path d="M 4.4027,0.9500 L 4.0456,0.9500 L 4.0456,0.2000 L 4.4027,0.2000" fill="none" stroke="black" stroke-width="0.025"/></g>
</svg>