<svg xmlns="http://www.w3.org/2000/svg" viewBox="0 0 1.5429 1.1500" width="617" height="460">
<rect width="100%" height="100%" fill="white"/>
<g><path d="M 0.4500,0.5571 L 0.5571,0.5929 L 0.5929,0.6286 L 0.6286,0.7000 L 0.6286,0.8071 L 0.5929,0.8786 L 0.5571,0.9143 L 0.4857,0.9500 L 0.2000,0.9500 L 0.2000,0.2000 L 0.4500,0.2000 L 0.5214,0.2357 L 0.5571,0.2714 L 0.5929,0.3429 L 0.5929,0.4143 L 0.5571,0.4857 L 0.5214,0.5214 L 0.4500,0.5571 L 0.2000,0.5571" fill="none" stroke="black" stroke-width="0.025"/>
<path d="M 1.0929,0.2000 L 1.1643,0.2000 L 1.2357,0.2357 L 1.2714,0.2714 L 1.3071,0.3429 L 1.3429,0.4857 L 1.3429,0.6643 L 1.3071,0.8071 L 1.2714,0.8786 L 1.2357,0.9143 L 1.1643,0.9500 L 1.0929,0.9500 L 1.0214,0.9143 L 0.9857,0.8786 L 0.9500,0.8071 L 0.9143,0.6643 L 0.9143,0.4857 L 0.9500,0.3429 L 0.9857,0.2714 L 1.0214,0.2357 L 1.0929,0.2000" fill="none" stroke="black" stroke-width="0.025"/></g>
</svg>