<svg xmlns="http://www.w3.org/2000/svg" viewBox="0 0 76.2464 74.7335"
  width="3050" height="2989">
  <rect width="100%" height="100%" fill="white"/>
  <g>
    <path d="M 36.1047,56.8212 L 33.5647,56.8212" fill="none" stroke="black" stroke-width="0.04"/>
<path d="M 37.3747,56.8212 L 37.3747,59.3612" fill="none" stroke="black" stroke-width="0.04"/>
<path d="M 41.9467,57.3292 L 42.9627,57.3292" fill="none" stroke="black" stroke-width="0.04"/>
<path d="M 43.9787,58.3452 L 43.7247,58.0912" fill="none" stroke="black" stroke-width="0.04"/>
<path d="M 46.2647,58.0912 L 43.7247,58.0912" fill="none" stroke="black" stroke-width="0.04"/>
<path d="M 40.2957,58.3452 L 40.0417,58.0912" fill="none" stroke="black" stroke-width="0.04"/>
<path d="M 42.7087,59.6152 L 42.4547,59.3612" fill="none" stroke="black" stroke-width="0.04"/>
<path d="M 40.0417,58.0912 L 40.2957,57.8372" fill="none" stroke="black" stroke-width="0.04"/>
<path d="M 36.1047,59.3612 L 36.1047,58.0912" fill="none" stroke="black" stroke-width="0.04"/>
<path d="M 35.0887,62.1552 L 35.3427,61.9012" fill="none" stroke="black" stroke-width="0.04"/>
<path d="M 33.5647,56.8212 L 33.5647,59.3612" fill="none" stroke="black" stroke-width="0.04"/>
<path d="M 35.0887,61.6472 L 35.0887,62.1552" fill="none" stroke="black" stroke-width="0.04"/>
<path d="M 43.7247,58.0912 L 43.9787,57.8372" fill="none" stroke="black" stroke-width="0.04"/>
<path d="M 40.2957,57.8372 L 40.2957,58.3452" fill="none" stroke="black" stroke-width="0.04"/>
<path d="M 43.6528,58.0912 L 43.6528,58.0912" fill="none" stroke="black" stroke-width="0.04"/>
<path d="M 43.2167,59.6152 L 43.5977,59.6152" fill="none" stroke="black" stroke-width="0.04"/>
<path d="M 42.4547,61.9012 L 42.4547,59.2893" fill="none" stroke="black" stroke-width="0.04"/>
<path d="M 38.0097,61.9012 L 42.4547,61.9012" fill="none" stroke="black" stroke-width="0.04"/>
<path d="M 36.4857,57.8372 L 36.4857,58.3452" fill="none" stroke="black" stroke-width="0.04"/>
<path d="M 31.0247,58.0912 L 33.5647,58.0912" fill="none" stroke="black" stroke-width="0.04"/>
<path d="M 38.0097,63.1712 L 35.4697,63.1712" fill="none" stroke="black" stroke-width="0.04"/>
<path d="M 36.1047,58.0912 L 36.1047,56.8212" fill="none" stroke="black" stroke-width="0.04"/>
<path d="M 37.3747,58.0912 L 36.1047,58.0912" fill="none" stroke="black" stroke-width="0.04"/>
<path d="M 39.9147,59.3612 L 39.9147,58.0912" fill="none" stroke="black" stroke-width="0.04"/>
<path d="M 42.2007,59.6152 L 42.7087,59.6152" fill="none" stroke="black" stroke-width="0.04"/>
<path d="M 32.2947,58.0912 L 32.2947,61.9012" fill="none" stroke="black" stroke-width="0.04"/>
<path d="M 33.5647,59.3612 L 36.1047,59.3612" fill="none" stroke="black" stroke-width="0.04"/>
<path d="M 37.3747,59.3612 L 39.9147,59.3612" fill="none" stroke="black" stroke-width="0.04"/>
<path d="M 39.9147,56.8212 L 37.3747,56.8212" fill="none" stroke="black" stroke-width="0.04"/>
<path d="M 39.9147,58.0912 L 39.9147,56.8212" fill="none" stroke="black" stroke-width="0.04"/>
<path d="M 41.2566,58.0912 L 39.9147,58.0912" fill="none" stroke="black" stroke-width="0.04"/>
<path d="M 38.0097,60.6312 L 38.0097,63.1712" fill="none" stroke="black" stroke-width="0.04"/>
<path d="M 42.4547,59.3612 L 42.2007,59.6152" fill="none" stroke="black" stroke-width="0.04"/>
<path d="M 35.4697,61.9012 L 35.4697,60.6312" fill="none" stroke="black" stroke-width="0.04"/>
<path d="M 42.9627,58.8532 L 41.9467,58.8532" fill="none" stroke="black" stroke-width="0.04"/>
<path d="M 42.3277,58.0912 L 42.9627,58.8532" fill="none" stroke="black" stroke-width="0.04"/>
<path d="M 42.9627,57.3292 L 42.3277,58.0912" fill="none" stroke="black" stroke-width="0.04"/>
<path d="M 43.9787,57.8372 L 43.9787,58.3452" fill="none" stroke="black" stroke-width="0.04"/>
<path d="M 35.4697,63.1712 L 35.4697,61.9012" fill="none" stroke="black" stroke-width="0.04"/>
<path d="M 32.2947,61.9012 L 35.4697,61.9012" fill="none" stroke="black" stroke-width="0.04"/>
<path d="M 35.3427,61.9012 L 35.0887,61.6472" fill="none" stroke="black" stroke-width="0.04"/>
<path d="M 36.2317,58.0912 L 36.4857,57.8372" fill="none" stroke="black" stroke-width="0.04"/>
<path d="M 36.4857,58.3452 L 36.2317,58.0912" fill="none" stroke="black" stroke-width="0.04"/>
<path d="M 35.4697,60.6312 L 38.0097,60.6312" fill="none" stroke="black" stroke-width="0.04"/>
<path d="M 58.8080,62.4077 L 58.8080,62.8720 L 59.0937,62.6220 L 59.0937,62.7292 L 59.1294,62.8006 L 59.1651,62.8363 L 59.2366,62.8720 L 59.4151,62.8720 L 59.4866,62.8363 L 59.5223,62.8006 L 59.5580,62.7292 L 59.5580,62.5149 L 59.5223,62.4434 L 59.4866,62.4077" fill="none" stroke="black" stroke-width="0.04"/>
<path d="M 58.8080,63.0863 L 59.5580,63.3363 L 58.8080,63.5863" fill="none" stroke="black" stroke-width="0.04"/>
<path d="M 58.8080,63.7649 L 58.8080,64.2292 L 59.0937,63.9792 L 59.0937,64.0863 L 59.1294,64.1577 L 59.1651,64.1934 L 59.2366,64.2292 L 59.4151,64.2292 L 59.4866,64.1934 L 59.5223,64.1577 L 59.5580,64.0863 L 59.5580,63.8720 L 59.5223,63.8006 L 59.4866,63.7649" fill="none" stroke="black" stroke-width="0.04"/>
<path d="M 61.3226,62.3839 L 61.3226,62.8124" fill="none" stroke="black" stroke-width="0.04"/>
<path d="M 62.0726,62.5982 L 61.3226,62.5982" fill="none" stroke="black" stroke-width="0.04"/>
<path d="M 61.3226,62.9910 L 62.0726,63.4910" fill="none" stroke="black" stroke-width="0.04"/>
<path d="M 61.3226,63.4910 L 62.0726,62.9910" fill="none" stroke="black" stroke-width="0.04"/>
<path d="M 63.3172,62.8303 L 62.9600,62.5803" fill="none" stroke="black" stroke-width="0.04"/>
<path d="M 63.3172,62.4017 L 62.5672,62.4017 L 62.5672,62.6874 L 62.6029,62.7589 L 62.6386,62.7946 L 62.7100,62.8303 L 62.8172,62.8303 L 62.8886,62.7946 L 62.9243,62.7589 L 62.9600,62.6874 L 62.9600,62.4017" fill="none" stroke="black" stroke-width="0.04"/>
<path d="M 62.5672,63.0803 L 63.3172,63.5803" fill="none" stroke="black" stroke-width="0.04"/>
<path d="M 62.5672,63.5803 L 63.3172,63.0803" fill="none" stroke="black" stroke-width="0.04"/>
<path d="M 60.0883,62.7649 L 60.0526,62.6934 L 60.0526,62.5863 L 60.0883,62.4792 L 60.1597,62.4077 L 60.2312,62.3720 L 60.3740,62.3363 L 60.4812,62.3363 L 60.6240,62.3720 L 60.6954,62.4077 L 60.7669,62.4792 L 60.8026,62.5863 L 60.8026,62.6577 L 60.7669,62.7649 L 60.7312,62.8006 L 60.4812,62.8006 L 60.4812,62.6577" fill="none" stroke="black" stroke-width="0.04"/>
<path d="M 60.8026,63.1220 L 60.0526,63.1220 L 60.8026,63.5506 L 60.0526,63.5506" fill="none" stroke="black" stroke-width="0.04"/>
<path d="M 60.8026,63.9077 L 60.0526,63.9077 L 60.0526,64.0863 L 60.0883,64.1934 L 60.1597,64.2649 L 60.2312,64.3006 L 60.3740,64.3363 L 60.4812,64.3363 L 60.6240,64.3006 L 60.6954,64.2649 L 60.7669,64.1934 L 60.8026,64.0863 L 60.8026,63.9077" fill="none" stroke="black" stroke-width="0.04"/>
<path d="M 71.7806,37.8700 L 72.7806,37.7450" fill="none" stroke="black" stroke-width="0.04"/>
<path d="M 71.8282,37.8640 L 71.7806,37.9652 L 71.7806,38.1557 L 71.8282,38.2450 L 71.8758,38.2866 L 71.9711,38.3223 L 72.2568,38.2866 L 72.3520,38.2271 L 72.3997,38.1735 L 72.4473,38.0723 L 72.4473,37.8819 L 72.3997,37.7926" fill="none" stroke="black" stroke-width="0.04"/>
<path d="M 72.4473,38.6914 L 71.4473,38.8164" fill="none" stroke="black" stroke-width="0.04"/>
<path d="M 72.4473,39.1200 L 71.9235,39.1854 L 71.8282,39.1497 L 71.7806,39.0604 L 71.7806,38.9176 L 71.8282,38.8164 L 71.8758,38.7628" fill="none" stroke="black" stroke-width="0.04"/>
<path d="M 72.4473,39.5962 L 71.7806,39.6795" fill="none" stroke="black" stroke-width="0.04"/>
<path d="M 71.4473,39.7212 L 71.4949,39.6676 L 71.5425,39.7092 L 71.4949,39.7628 L 71.4473,39.7212 L 71.5425,39.7092" fill="none" stroke="black" stroke-width="0.04"/>
<path d="M 72.4473,40.2152 L 72.3997,40.1259 L 72.3044,40.0902 L 71.4473,40.1973" fill="none" stroke="black" stroke-width="0.04"/>
<path d="M 72.3997,40.5545 L 72.4473,40.6438 L 72.4473,40.8342 L 72.3997,40.9354 L 72.3044,40.9950 L 72.2568,41.0009 L 72.1616,40.9652 L 72.1139,40.8759 L 72.1139,40.7331 L 72.0663,40.6438 L 71.9711,40.6081 L 71.9235,40.6140 L 71.8282,40.6735 L 71.7806,40.7747 L 71.7806,40.9176 L 71.8282,41.0069" fill="none" stroke="black" stroke-width="0.04"/>
<path d="M 72.4473,41.8342 L 71.9235,41.8997 L 71.8282,41.8640 L 71.7806,41.7747 L 71.7806,41.5842 L 71.8282,41.4831" fill="none" stroke="black" stroke-width="0.04"/>
<path d="M 72.3997,41.8402 L 72.4473,41.7390 L 72.4473,41.5009 L 72.3997,41.4116 L 72.3044,41.3759 L 72.2092,41.3878 L 72.1139,41.4473 L 72.0663,41.5485 L 72.0663,41.7866 L 72.0187,41.8878" fill="none" stroke="black" stroke-width="0.04"/>
<path d="M 72.4473,42.4533 L 72.3997,42.3640 L 72.3044,42.3283 L 71.4473,42.4354" fill="none" stroke="black" stroke-width="0.04"/>
<path d="M 72.3520,42.8462 L 72.3997,42.8878 L 72.4473,42.8342 L 72.3997,42.7926 L 72.3520,42.8462 L 72.4473,42.8342" fill="none" stroke="black" stroke-width="0.04"/>
<path d="M 72.3997,43.7450 L 72.4473,43.6438 L 72.4473,43.4533 L 72.3997,43.3640 L 72.3520,43.3223 L 72.2568,43.2866 L 71.9711,43.3223 L 71.8758,43.3819 L 71.8282,43.4354 L 71.7806,43.5366 L 71.7806,43.7271 L 71.8282,43.8164" fill="none" stroke="black" stroke-width="0.04"/>
<path d="M 72.4473,44.3104 L 72.3997,44.2212 L 72.3520,44.1795 L 72.2568,44.1438 L 71.9711,44.1795 L 71.8758,44.2390 L 71.8282,44.2926 L 71.7806,44.3938 L 71.7806,44.5366 L 71.8282,44.6259 L 71.8758,44.6676 L 71.9711,44.7033 L 72.2568,44.6676 L 72.3520,44.6081 L 72.3997,44.5545 L 72.4473,44.4533 L 72.4473,44.3104" fill="none" stroke="black" stroke-width="0.04"/>
<path d="M 72.3520,45.0842 L 72.3997,45.1259 L 72.4473,45.0723 L 72.3997,45.0307 L 72.3520,45.0842 L 72.4473,45.0723" fill="none" stroke="black" stroke-width="0.04"/>
<path d="M 71.7806,46.0604 L 72.4473,45.9771" fill="none" stroke="black" stroke-width="0.04"/>
<path d="M 71.7806,45.6319 L 72.3044,45.5664 L 72.3997,45.6021 L 72.4473,45.6914 L 72.4473,45.8342 L 72.3997,45.9354 L 72.3520,45.9890" fill="none" stroke="black" stroke-width="0.04"/>
<path d="M 72.4473,46.4533 L 71.4473,46.5783" fill="none" stroke="black" stroke-width="0.04"/>
<path d="M 72.0663,46.5962 L 72.4473,46.8342" fill="none" stroke="black" stroke-width="0.04"/>
<path d="M 71.7806,46.9176 L 72.1616,46.4890" fill="none" stroke="black" stroke-width="0.04"/>
<path d="M 38.9066,58.5436 L 38.9066,57.5436 L 38.5256,57.5436 L 38.4304,57.5912 L 38.3828,57.6388 L 38.3352,57.7341 L 38.3352,57.8769 L 38.3828,57.9722 L 38.4304,58.0198 L 38.5256,58.0674 L 38.9066,58.0674" fill="none" stroke="black" stroke-width="0.04"/>
<path d="M 37.0254,62.3060 L 36.8826,62.3536 L 36.6445,62.3536 L 36.5492,62.3060 L 36.5016,62.2583 L 36.4540,62.1631 L 36.4540,62.0679 L 36.5016,61.9726 L 36.5492,61.9250 L 36.6445,61.8774 L 36.8349,61.8298 L 36.9302,61.7822 L 36.9778,61.7345 L 37.0254,61.6393 L 37.0254,61.5441 L 36.9778,61.4488 L 36.9302,61.4012 L 36.8349,61.3536 L 36.5968,61.3536 L 36.4540,61.4012" fill="none" stroke="black" stroke-width="0.04"/>
<path d="M 35.1680,58.5436 L 35.1680,57.5436 L 34.8347,58.2579 L 34.5014,57.5436 L 34.5014,58.5436" fill="none" stroke="black" stroke-width="0.04"/>
<path d="M 54.0208,62.8303 L 53.6636,62.5803" fill="none" stroke="black" stroke-width="0.04"/>
<path d="M 54.0208,62.4017 L 53.2708,62.4017 L 53.2708,62.6874 L 53.3065,62.7589 L 53.3422,62.7946 L 53.4136,62.8303 L 53.5208,62.8303 L 53.5922,62.7946 L 53.6279,62.7589 L 53.6636,62.6874 L 53.6636,62.4017" fill="none" stroke="black" stroke-width="0.04"/>
<path d="M 53.2708,63.0803 L 54.0208,63.5803" fill="none" stroke="black" stroke-width="0.04"/>
<path d="M 53.2708,63.5803 L 54.0208,63.0803" fill="none" stroke="black" stroke-width="0.04"/>
<path d="M 50.8173,62.7649 L 50.7816,62.6934 L 50.7816,62.5863 L 50.8173,62.4792 L 50.8887,62.4077 L 50.9602,62.3720 L 51.1030,62.3363 L 51.2102,62.3363 L 51.3530,62.3720 L 51.4244,62.4077 L 51.4959,62.4792 L 51.5316,62.5863 L 51.5316,62.6577 L 51.4959,62.7649 L 51.4602,62.8006 L 51.2102,62.8006 L 51.2102,62.6577" fill="none" stroke="black" stroke-width="0.04"/>
<path d="M 51.5316,63.1220 L 50.7816,63.1220 L 51.5316,63.5506 L 50.7816,63.5506" fill="none" stroke="black" stroke-width="0.04"/>
<path d="M 51.5316,63.9077 L 50.7816,63.9077 L 50.7816,64.0863 L 50.8173,64.1934 L 50.8887,64.2649 L 50.9602,64.3006 L 51.1030,64.3363 L 51.2102,64.3363 L 51.3530,64.3006 L 51.4244,64.2649 L 51.4959,64.1934 L 51.5316,64.0863 L 51.5316,63.9077" fill="none" stroke="black" stroke-width="0.04"/>
<path d="M 49.5370,62.4077 L 49.5370,62.8720 L 49.8227,62.6220 L 49.8227,62.7292 L 49.8584,62.8006 L 49.8941,62.8363 L 49.9656,62.8720 L 50.1441,62.8720 L 50.2156,62.8363 L 50.2513,62.8006 L 50.2870,62.7292 L 50.2870,62.5149 L 50.2513,62.4434 L 50.2156,62.4077" fill="none" stroke="black" stroke-width="0.04"/>
<path d="M 49.5370,63.0863 L 50.2870,63.3363 L 49.5370,63.5863" fill="none" stroke="black" stroke-width="0.04"/>
<path d="M 49.5370,63.7649 L 49.5370,64.2292 L 49.8227,63.9792 L 49.8227,64.0863 L 49.8584,64.1577 L 49.8941,64.1934 L 49.9656,64.2292 L 50.1441,64.2292 L 50.2156,64.1934 L 50.2513,64.1577 L 50.2870,64.0863 L 50.2870,63.8720 L 50.2513,63.8006 L 50.2156,63.7649" fill="none" stroke="black" stroke-width="0.04"/>
<path d="M 52.0262,62.3839 L 52.0262,62.8124" fill="none" stroke="black" stroke-width="0.04"/>
<path d="M 52.7762,62.5982 L 52.0262,62.5982" fill="none" stroke="black" stroke-width="0.04"/>
<path d="M 52.0262,62.9910 L 52.7762,63.4910" fill="none" stroke="black" stroke-width="0.04"/>
<path d="M 52.0262,63.4910 L 52.7762,62.9910" fill="none" stroke="black" stroke-width="0.04"/>
<path d="M 71.1963,54.7976 L 70.7320,54.7976 L 70.9820,55.0833 L 70.8748,55.0833 L 70.8034,55.1190 L 70.7677,55.1547 L 70.7320,55.2262 L 70.7320,55.4047 L 70.7677,55.4762 L 70.8034,55.5119 L 70.8748,55.5476 L 71.0891,55.5476 L 71.1606,55.5119 L 71.1963,55.4762" fill="none" stroke="black" stroke-width="0.04"/>
<path d="M 70.5177,54.7976 L 70.2677,55.5476 L 70.0177,54.7976" fill="none" stroke="black" stroke-width="0.04"/>
<path d="M 69.8391,54.7976 L 69.3748,54.7976 L 69.6248,55.0833 L 69.5177,55.0833 L 69.4463,55.1190 L 69.4106,55.1547 L 69.3748,55.2262 L 69.3748,55.4047 L 69.4106,55.4762 L 69.4463,55.5119 L 69.5177,55.5476 L 69.7320,55.5476 L 69.8034,55.5119 L 69.8391,55.4762" fill="none" stroke="black" stroke-width="0.04"/>
<path d="M 70.8899,53.5633 L 70.9614,53.5276 L 71.0685,53.5276 L 71.1756,53.5633 L 71.2471,53.6347 L 71.2828,53.7062 L 71.3185,53.8490 L 71.3185,53.9562 L 71.2828,54.0990 L 71.2471,54.1704 L 71.1756,54.2419 L 71.0685,54.2776 L 70.9971,54.2776 L 70.8899,54.2419 L 70.8542,54.2062 L 70.8542,53.9562 L 70.9971,53.9562" fill="none" stroke="black" stroke-width="0.04"/>
<path d="M 70.5328,54.2776 L 70.5328,53.5276 L 70.1042,54.2776 L 70.1042,53.5276" fill="none" stroke="black" stroke-width="0.04"/>
<path d="M 69.7471,54.2776 L 69.7471,53.5276 L 69.5685,53.5276 L 69.4614,53.5633 L 69.3899,53.6347 L 69.3542,53.7062 L 69.3185,53.8490 L 69.3185,53.9562 L 69.3542,54.0990 L 69.3899,54.1704 L 69.4614,54.2419 L 69.5685,54.2776 L 69.7471,54.2776" fill="none" stroke="black" stroke-width="0.04"/>
<path d="M 71.2368,52.9719 L 71.1296,53.0076 L 70.9510,53.0076 L 70.8796,52.9719 L 70.8439,52.9362 L 70.8082,52.8647 L 70.8082,52.7933 L 70.8439,52.7219 L 70.8796,52.6862 L 70.9510,52.6504 L 71.0939,52.6147 L 71.1653,52.5790 L 71.2010,52.5433 L 71.2368,52.4719 L 71.2368,52.4004 L 71.2010,52.3290 L 71.1653,52.2933 L 71.0939,52.2576 L 70.9153,52.2576 L 70.8082,52.2933" fill="none" stroke="black" stroke-width="0.04"/>
<path d="M 70.0582,52.9362 L 70.0939,52.9719 L 70.2010,53.0076 L 70.2725,53.0076 L 70.3796,52.9719 L 70.4510,52.9004 L 70.4868,52.8290 L 70.5225,52.6862 L 70.5225,52.5790 L 70.4868,52.4362 L 70.4510,52.3647 L 70.3796,52.2933 L 70.2725,52.2576 L 70.2010,52.2576 L 70.0939,52.2933 L 70.0582,52.3290" fill="none" stroke="black" stroke-width="0.04"/>
<path d="M 69.3796,53.0076 L 69.7368,53.0076 L 69.7368,52.2576" fill="none" stroke="black" stroke-width="0.04"/>
<path d="M 71.2800,51.8289 L 71.1729,51.8646 L 70.9943,51.8646 L 70.9229,51.8289 L 70.8872,51.7932 L 70.8514,51.7217 L 70.8514,51.6503 L 70.8872,51.5789 L 70.9229,51.5432 L 70.9943,51.5074 L 71.1372,51.4717 L 71.2086,51.4360 L 71.2443,51.4003 L 71.2800,51.3289 L 71.2800,51.2574 L 71.2443,51.1860 L 71.2086,51.1503 L 71.1372,51.1146 L 70.9586,51.1146 L 70.8514,51.1503" fill="none" stroke="black" stroke-width="0.04"/>
<path d="M 70.5300,51.8646 L 70.5300,51.1146 L 70.3514,51.1146 L 70.2443,51.1503 L 70.1729,51.2217 L 70.1372,51.2932 L 70.1014,51.4360 L 70.1014,51.5432 L 70.1372,51.6860 L 70.1729,51.7574 L 70.2443,51.8289 L 70.3514,51.8646 L 70.5300,51.8646" fill="none" stroke="black" stroke-width="0.04"/>
<path d="M 69.8157,51.6503 L 69.4586,51.6503" fill="none" stroke="black" stroke-width="0.04"/>
<path d="M 69.8872,51.8646 L 69.6372,51.1146 L 69.3872,51.8646" fill="none" stroke="black" stroke-width="0.04"/>
<path d="M 26.9447,52.1186 L 26.9447,51.3686 L 26.6590,51.3686 L 26.5876,51.4043 L 26.5518,51.4400 L 26.5161,51.5114 L 26.5161,51.6186 L 26.5518,51.6900 L 26.5876,51.7257 L 26.6590,51.7614 L 26.9447,51.7614" fill="none" stroke="black" stroke-width="0.04"/>
<path d="M 26.2661,51.3686 L 26.0876,52.1186 L 25.9447,51.5829 L 25.8018,52.1186 L 25.6233,51.3686" fill="none" stroke="black" stroke-width="0.04"/>
<path d="M 24.9090,52.1186 L 25.1590,51.7614" fill="none" stroke="black" stroke-width="0.04"/>
<path d="M 25.3376,52.1186 L 25.3376,51.3686 L 25.0518,51.3686 L 24.9804,51.4043 L 24.9447,51.4400 L 24.9090,51.5114 L 24.9090,51.6186 L 24.9447,51.6900 L 24.9804,51.7257 L 25.0518,51.7614 L 25.3376,51.7614" fill="none" stroke="black" stroke-width="0.04"/>
<path d="M 26.5161,54.8333 L 26.5876,54.7976 L 26.6947,54.7976 L 26.8018,54.8333 L 26.8733,54.9047 L 26.9090,54.9762 L 26.9447,55.1190 L 26.9447,55.2262 L 26.9090,55.3690 L 26.8733,55.4404 L 26.8018,55.5119 L 26.6947,55.5476 L 26.6233,55.5476 L 26.5161,55.5119 L 26.4804,55.4762 L 26.4804,55.2262 L 26.6233,55.2262" fill="none" stroke="black" stroke-width="0.04"/>
<path d="M 26.1590,55.5476 L 26.1590,54.7976 L 25.7304,55.5476 L 25.7304,54.7976" fill="none" stroke="black" stroke-width="0.04"/>
<path d="M 25.3733,55.5476 L 25.3733,54.7976 L 25.1947,54.7976 L 25.0876,54.8333 L 25.0161,54.9047 L 24.9804,54.9762 L 24.9447,55.1190 L 24.9447,55.2262 L 24.9804,55.3690 L 25.0161,55.4404 L 25.0876,55.5119 L 25.1947,55.5476 L 25.3733,55.5476" fill="none" stroke="black" stroke-width="0.04"/>
<path d="M 35.4280,18.5213 L 34.6780,18.5213 L 34.6780,18.8070 L 34.7137,18.8784 L 34.7494,18.9142 L 34.8208,18.9499 L 34.9280,18.9499 L 34.9994,18.9142 L 35.0351,18.8784 L 35.0708,18.8070 L 35.0708,18.5213" fill="none" stroke="black" stroke-width="0.04"/>
<path d="M 34.6780,19.1999 L 35.4280,19.3784 L 34.8923,19.5213 L 35.4280,19.6642 L 34.6780,19.8427" fill="none" stroke="black" stroke-width="0.04"/>
<path d="M 35.4280,20.5570 L 35.0708,20.3070" fill="none" stroke="black" stroke-width="0.04"/>
<path d="M 35.4280,20.1284 L 34.6780,20.1284 L 34.6780,20.4142 L 34.7137,20.4856 L 34.7494,20.5213 L 34.8208,20.5570 L 34.9280,20.5570 L 34.9994,20.5213 L 35.0351,20.4856 L 35.0708,20.4142 L 35.0708,20.1284" fill="none" stroke="black" stroke-width="0.04"/>
<path d="M 33.4437,18.9499 L 33.4080,18.8784 L 33.4080,18.7713 L 33.4437,18.6642 L 33.5151,18.5927 L 33.5866,18.5570 L 33.7294,18.5213 L 33.8366,18.5213 L 33.9794,18.5570 L 34.0508,18.5927 L 34.1223,18.6642 L 34.1580,18.7713 L 34.1580,18.8427 L 34.1223,18.9499 L 34.0866,18.9856 L 33.8366,18.9856 L 33.8366,18.8427" fill="none" stroke="black" stroke-width="0.04"/>
<path d="M 34.1580,19.3070 L 33.4080,19.3070 L 34.1580,19.7356 L 33.4080,19.7356" fill="none" stroke="black" stroke-width="0.04"/>
<path d="M 34.1580,20.0927 L 33.4080,20.0927 L 33.4080,20.2713 L 33.4437,20.3784 L 33.5151,20.4499 L 33.5866,20.4856 L 33.7294,20.5213 L 33.8366,20.5213 L 33.9794,20.4856 L 34.0508,20.4499 L 34.1223,20.3784 L 34.1580,20.2713 L 34.1580,20.0927" fill="none" stroke="black" stroke-width="0.04"/>
<path d="M 61.2567,18.9499 L 61.2210,18.8784 L 61.2210,18.7713 L 61.2567,18.6642 L 61.3281,18.5927 L 61.3996,18.5570 L 61.5424,18.5213 L 61.6496,18.5213 L 61.7924,18.5570 L 61.8638,18.5927 L 61.9353,18.6642 L 61.9710,18.7713 L 61.9710,18.8427 L 61.9353,18.9499 L 61.8996,18.9856 L 61.6496,18.9856 L 61.6496,18.8427" fill="none" stroke="black" stroke-width="0.04"/>
<path d="M 61.9710,19.3070 L 61.2210,19.3070 L 61.9710,19.7356 L 61.2210,19.7356" fill="none" stroke="black" stroke-width="0.04"/>
<path d="M 61.9710,20.0927 L 61.2210,20.0927 L 61.2210,20.2713 L 61.2567,20.3784 L 61.3281,20.4499 L 61.3996,20.4856 L 61.5424,20.5213 L 61.6496,20.5213 L 61.7924,20.4856 L 61.8638,20.4499 L 61.9353,20.3784 L 61.9710,20.2713 L 61.9710,20.0927" fill="none" stroke="black" stroke-width="0.04"/>
<path d="M 62.4910,18.5927 L 62.4910,19.0570 L 62.7767,18.8070 L 62.7767,18.9142 L 62.8124,18.9856 L 62.8481,19.0213 L 62.9196,19.0570 L 63.0981,19.0570 L 63.1696,19.0213 L 63.2053,18.9856 L 63.2410,18.9142 L 63.2410,18.6999 L 63.2053,18.6284 L 63.1696,18.5927" fill="none" stroke="black" stroke-width="0.04"/>
<path d="M 62.4910,19.2713 L 63.2410,19.5213 L 62.4910,19.7713" fill="none" stroke="black" stroke-width="0.04"/>
<path d="M 62.4910,19.9499 L 62.4910,20.4142 L 62.7767,20.1642 L 62.7767,20.2713 L 62.8124,20.3427 L 62.8481,20.3784 L 62.9196,20.4142 L 63.0981,20.4142 L 63.1696,20.3784 L 63.2053,20.3427 L 63.2410,20.2713 L 63.2410,20.0570 L 63.2053,19.9856 L 63.1696,19.9499" fill="none" stroke="black" stroke-width="0.04"/>
<path d="M 60.0018,19.3817 L 60.0018,19.8102" fill="none" stroke="black" stroke-width="0.04"/>
<path d="M 60.7518,19.5960 L 60.0018,19.5960" fill="none" stroke="black" stroke-width="0.04"/>
<path d="M 60.0018,19.9888 L 60.7518,20.4888" fill="none" stroke="black" stroke-width="0.04"/>
<path d="M 60.0018,20.4888 L 60.7518,19.9888" fill="none" stroke="black" stroke-width="0.04"/>
<path d="M 59.4818,19.7392 L 59.1246,19.4892" fill="none" stroke="black" stroke-width="0.04"/>
<path d="M 59.4818,19.3106 L 58.7318,19.3106 L 58.7318,19.5963 L 58.7675,19.6678 L 58.8032,19.7035 L 58.8746,19.7392 L 58.9818,19.7392 L 59.0532,19.7035 L 59.0889,19.6678 L 59.1246,19.5963 L 59.1246,19.3106" fill="none" stroke="black" stroke-width="0.04"/>
<path d="M 58.7318,19.9892 L 59.4818,20.4892" fill="none" stroke="black" stroke-width="0.04"/>
<path d="M 58.7318,20.4892 L 59.4818,19.9892" fill="none" stroke="black" stroke-width="0.04"/>
<path d="M 54.0256,19.0034 L 54.0613,18.9677 L 54.0970,18.8606 L 54.0970,18.7892 L 54.0613,18.6820 L 53.9898,18.6106 L 53.9184,18.5749 L 53.7756,18.5392 L 53.6684,18.5392 L 53.5256,18.5749 L 53.4541,18.6106 L 53.3827,18.6820 L 53.3470,18.7892 L 53.3470,18.8606 L 53.3827,18.9677 L 53.4184,19.0034" fill="none" stroke="black" stroke-width="0.04"/>
<path d="M 54.0970,19.3249 L 53.3470,19.3249" fill="none" stroke="black" stroke-width="0.04"/>
<path d="M 53.7041,19.3249 L 53.7041,19.7534" fill="none" stroke="black" stroke-width="0.04"/>
<path d="M 54.0970,19.7534 L 53.3470,19.7534" fill="none" stroke="black" stroke-width="0.04"/>
<path d="M 54.0970,20.5034 L 54.0970,20.0749" fill="none" stroke="black" stroke-width="0.04"/>
<path d="M 54.0970,20.2892 L 53.3470,20.2892 L 53.4541,20.2177 L 53.5256,20.1463 L 53.5613,20.0749" fill="none" stroke="black" stroke-width="0.04"/>
<path d="M 52.7556,19.0034 L 52.7913,18.9677 L 52.8270,18.8606 L 52.8270,18.7892 L 52.7913,18.6820 L 52.7198,18.6106 L 52.6484,18.5749 L 52.5056,18.5392 L 52.3984,18.5392 L 52.2556,18.5749 L 52.1841,18.6106 L 52.1127,18.6820 L 52.0770,18.7892 L 52.0770,18.8606 L 52.1127,18.9677 L 52.1484,19.0034" fill="none" stroke="black" stroke-width="0.04"/>
<path d="M 52.8270,19.3249 L 52.0770,19.3249" fill="none" stroke="black" stroke-width="0.04"/>
<path d="M 52.4341,19.3249 L 52.4341,19.7534" fill="none" stroke="black" stroke-width="0.04"/>
<path d="M 52.8270,19.7534 L 52.0770,19.7534" fill="none" stroke="black" stroke-width="0.04"/>
<path d="M 52.1484,20.0749 L 52.1127,20.1106 L 52.0770,20.1820 L 52.0770,20.3606 L 52.1127,20.4320 L 52.1484,20.4677 L 52.2198,20.5034 L 52.2913,20.5034 L 52.3984,20.4677 L 52.8270,20.0392 L 52.8270,20.5034" fill="none" stroke="black" stroke-width="0.04"/>
<path d="M 51.5110,19.0034 L 51.5467,18.9677 L 51.5824,18.8606 L 51.5824,18.7892 L 51.5467,18.6820 L 51.4752,18.6106 L 51.4038,18.5749 L 51.2610,18.5392 L 51.1538,18.5392 L 51.0110,18.5749 L 50.9395,18.6106 L 50.8681,18.6820 L 50.8324,18.7892 L 50.8324,18.8606 L 50.8681,18.9677 L 50.9038,19.0034" fill="none" stroke="black" stroke-width="0.04"/>
<path d="M 51.5824,19.3249 L 50.8324,19.3249" fill="none" stroke="black" stroke-width="0.04"/>
<path d="M 51.1895,19.3249 L 51.1895,19.7534" fill="none" stroke="black" stroke-width="0.04"/>
<path d="M 51.5824,19.7534 L 50.8324,19.7534" fill="none" stroke="black" stroke-width="0.04"/>
<path d="M 50.8324,20.0392 L 50.8324,20.5034 L 51.1181,20.2534 L 51.1181,20.3606 L 51.1538,20.4320 L 51.1895,20.4677 L 51.2610,20.5034 L 51.4395,20.5034 L 51.5110,20.4677 L 51.5467,20.4320 L 51.5824,20.3606 L 51.5824,20.1463 L 51.5467,20.0749 L 51.5110,20.0392" fill="none" stroke="black" stroke-width="0.04"/>
<path d="M 50.2664,19.0034 L 50.3021,18.9677 L 50.3378,18.8606 L 50.3378,18.7892 L 50.3021,18.6820 L 50.2306,18.6106 L 50.1592,18.5749 L 50.0164,18.5392 L 49.9092,18.5392 L 49.7664,18.5749 L 49.6949,18.6106 L 49.6235,18.6820 L 49.5878,18.7892 L 49.5878,18.8606 L 49.6235,18.9677 L 49.6592,19.0034" fill="none" stroke="black" stroke-width="0.04"/>
<path d="M 50.3378,19.3249 L 49.5878,19.3249" fill="none" stroke="black" stroke-width="0.04"/>
<path d="M 49.9449,19.3249 L 49.9449,19.7534" fill="none" stroke="black" stroke-width="0.04"/>
<path d="M 50.3378,19.7534 L 49.5878,19.7534" fill="none" stroke="black" stroke-width="0.04"/>
<path d="M 49.8378,20.4320 L 50.3378,20.4320" fill="none" stroke="black" stroke-width="0.04"/>
<path d="M 49.5521,20.2534 L 50.0878,20.0749 L 50.0878,20.5392" fill="none" stroke="black" stroke-width="0.04"/>
<path d="M 70.5422,25.1069 L 70.8279,25.1069" fill="none" stroke="black" stroke-width="0.04"/>
<path d="M 70.6851,25.1069 L 70.6851,24.6069 L 70.7327,24.6783 L 70.7803,24.7259 L 70.8279,24.7497" fill="none" stroke="black" stroke-width="0.04"/>
<path d="M 70.3518,24.6545 L 70.3279,24.6307 L 70.2803,24.6069 L 70.1613,24.6069 L 70.1137,24.6307 L 70.0898,24.6545 L 70.0660,24.7021 L 70.0660,24.7497 L 70.0898,24.8212 L 70.3756,25.1069 L 70.0660,25.1069" fill="none" stroke="black" stroke-width="0.04"/>
<path d="M 69.4946,24.5831 L 69.9232,25.2259" fill="none" stroke="black" stroke-width="0.04"/>
<path d="M 69.0660,25.1069 L 69.3518,25.1069" fill="none" stroke="black" stroke-width="0.04"/>
<path d="M 69.2089,25.1069 L 69.2089,24.6069 L 69.2565,24.6783 L 69.3041,24.7259 L 69.3518,24.7497" fill="none" stroke="black" stroke-width="0.04"/>
<path d="M 68.8279,25.1069 L 68.7327,25.1069 L 68.6851,25.0831 L 68.6613,25.0593 L 68.6137,24.9878 L 68.5898,24.8926 L 68.5898,24.7021 L 68.6137,24.6545 L 68.6375,24.6307 L 68.6851,24.6069 L 68.7803,24.6069 L 68.8279,24.6307 L 68.8518,24.6545 L 68.8756,24.7021 L 68.8756,24.8212 L 68.8518,24.8688 L 68.8279,24.8926 L 68.7803,24.9164 L 68.6851,24.9164 L 68.6375,24.8926 L 68.6137,24.8688 L 68.5898,24.8212" fill="none" stroke="black" stroke-width="0.04"/>
<path d="M 28.4768,47.2073 L 28.4768,46.4453" fill="none" stroke="black" stroke-width="0.04"/>
<path d="M 28.0958,46.8263 L 28.8577,46.8263" fill="none" stroke="black" stroke-width="0.04"/>
<path d="M 26.3891,46.8977 L 25.6272,46.8977" fill="none" stroke="black" stroke-width="0.04"/>
<path d="M 31.2850,47.2311 L 31.1422,47.2787 L 30.9041,47.2787 L 30.8088,47.2311 L 30.7612,47.1834 L 30.7136,47.0882 L 30.7136,46.9930 L 30.7612,46.8977 L 30.8088,46.8501 L 30.9041,46.8025 L 31.0945,46.7549 L 31.1898,46.7073 L 31.2374,46.6596 L 31.2850,46.5644 L 31.2850,46.4692 L 31.2374,46.3739 L 31.1898,46.3263 L 31.0945,46.2787 L 30.8564,46.2787 L 30.7136,46.3263" fill="none" stroke="black" stroke-width="0.04"/>
  </g>
</svg>