<svg xmlns="http://www.w3.org/2000/svg" viewBox="0 0 76.9086 76.6207"
  width="3076" height="3065">
  <rect width="100%" height="100%" fill="white"/>
  <g>
    <path d="M 45.5328,26.9842 L 45.7868,26.7302" fill="none" stroke="black" stroke-width="0.04"/>
<path d="M 43.2468,26.7302 L 43.2468,29.2702" fill="none" stroke="black" stroke-width="0.04"/>
<path d="M 42.9928,29.0162 L 43.2468,29.2702" fill="none" stroke="black" stroke-width="0.04"/>
<path d="M 43.5008,29.0162 L 42.9928,29.0162" fill="none" stroke="black" stroke-width="0.04"/>
<path d="M 43.2468,29.2702 L 43.5008,29.0162" fill="none" stroke="black" stroke-width="0.04"/>
<path d="M 45.5328,26.4762 L 45.5328,26.9842" fill="none" stroke="black" stroke-width="0.04"/>
<path d="M 67.0526,46.0850 L 67.0526,46.0850" fill="none" stroke="black" stroke-width="0.04"/>
<path d="M 35.9122,31.8864 L 35.9122,31.8864" fill="none" stroke="black" stroke-width="0.04"/>
<path d="M 38.4776,28.5082 L 38.4776,28.5082" fill="none" stroke="black" stroke-width="0.04"/>
<path d="M 60.3216,28.8892 L 60.3216,28.8892" fill="none" stroke="black" stroke-width="0.04"/>
<path d="M 62.6838,28.9908 L 62.6838,28.9908" fill="none" stroke="black" stroke-width="0.04"/>
<path d="M 46.9612,63.8904 L 46.9612,63.8904" fill="none" stroke="black" stroke-width="0.04"/>
<path d="M 43.6084,44.8150 L 43.6084,44.8150" fill="none" stroke="black" stroke-width="0.04"/>
<path d="M 45.7868,26.7302 L 45.5328,26.4762" fill="none" stroke="black" stroke-width="0.04"/>
<path d="M 43.2468,27.1112 L 43.6278,27.1112" fill="none" stroke="black" stroke-width="0.04"/>
<path d="M 43.6278,27.1112 L 43.6278,26.7302" fill="none" stroke="black" stroke-width="0.04"/>
<path d="M 43.2468,26.7302 L 45.7868,26.7302" fill="none" stroke="black" stroke-width="0.04"/>
<path d="M 45.0883,42.3361 L 45.4693,42.3361" fill="none" stroke="black" stroke-width="0.04"/>
<path d="M 45.2788,42.5266 L 45.2788,42.1456" fill="none" stroke="black" stroke-width="0.04"/>
<path d="M 64.9257,28.8995 L 65.3067,28.8995" fill="none" stroke="black" stroke-width="0.04"/>
<path d="M 65.1162,29.0900 L 65.1162,28.7090" fill="none" stroke="black" stroke-width="0.04"/>
<path d="M 33.1757,47.5177 L 33.5567,47.5177" fill="none" stroke="black" stroke-width="0.04"/>
<path d="M 33.3662,47.7082 L 33.3662,47.3272" fill="none" stroke="black" stroke-width="0.04"/>
<path d="M 58.5503,53.0803 L 58.9313,53.0803" fill="none" stroke="black" stroke-width="0.04"/>
<path d="M 58.7408,53.2708 L 58.7408,52.8898" fill="none" stroke="black" stroke-width="0.04"/>
<path d="M 60.3283,53.0803 L 60.7093,53.0803" fill="none" stroke="black" stroke-width="0.04"/>
<path d="M 60.5188,53.2708 L 60.5188,52.8898" fill="none" stroke="black" stroke-width="0.04"/>
<path d="M 62.1063,53.0549 L 62.4873,53.0549" fill="none" stroke="black" stroke-width="0.04"/>
<path d="M 62.2968,53.2454 L 62.2968,52.8644" fill="none" stroke="black" stroke-width="0.04"/>
<path d="M 63.8843,53.0295 L 64.2653,53.0295" fill="none" stroke="black" stroke-width="0.04"/>
<path d="M 64.0748,53.2200 L 64.0748,52.8390" fill="none" stroke="black" stroke-width="0.04"/>
<path d="M 34.5234,31.5404 L 34.5234,32.1594 L 34.1425,31.8261 L 34.1425,31.9689 L 34.0948,32.0642 L 34.0472,32.1118 L 33.9520,32.1594 L 33.7139,32.1594 L 33.6187,32.1118 L 33.5710,32.0642 L 33.5234,31.9689 L 33.5234,31.6832 L 33.5710,31.5880 L 33.6187,31.5404" fill="none" stroke="black" stroke-width="0.04"/>
<path d="M 34.1901,34.6042 L 33.5234,34.6042" fill="none" stroke="black" stroke-width="0.04"/>
<path d="M 34.5710,34.3661 L 33.8568,34.1280 L 33.8568,34.7470" fill="none" stroke="black" stroke-width="0.04"/>
<path d="M 34.4282,29.0480 L 34.4758,29.0956 L 34.5234,29.1908 L 34.5234,29.4289 L 34.4758,29.5242 L 34.4282,29.5718 L 34.3329,29.6194 L 34.2377,29.6194 L 34.0948,29.5718 L 33.5234,29.0004 L 33.5234,29.6194" fill="none" stroke="black" stroke-width="0.04"/>
<path d="M 34.5234,37.1918 L 34.5234,36.7156 L 34.0472,36.6680 L 34.0948,36.7156 L 34.1425,36.8108 L 34.1425,37.0489 L 34.0948,37.1442 L 34.0472,37.1918 L 33.9520,37.2394 L 33.7139,37.2394 L 33.6187,37.1918 L 33.5710,37.1442 L 33.5234,37.0489 L 33.5234,36.8108 L 33.5710,36.7156 L 33.6187,36.6680" fill="none" stroke="black" stroke-width="0.04"/>
<path d="M 34.5234,39.6842 L 34.5234,39.4937 L 34.4758,39.3985 L 34.4282,39.3508 L 34.2853,39.2556 L 34.0948,39.2080 L 33.7139,39.2080 L 33.6187,39.2556 L 33.5710,39.3032 L 33.5234,39.3985 L 33.5234,39.5889 L 33.5710,39.6842 L 33.6187,39.7318 L 33.7139,39.7794 L 33.9520,39.7794 L 34.0472,39.7318 L 34.0948,39.6842 L 34.1425,39.5889 L 34.1425,39.3985 L 34.0948,39.3032 L 34.0472,39.2556 L 33.9520,39.2080" fill="none" stroke="black" stroke-width="0.04"/>
<path d="M 34.5234,41.6369 L 34.5234,42.3035 L 33.5234,41.8750" fill="none" stroke="black" stroke-width="0.04"/>
<path d="M 34.0948,44.4785 L 34.1425,44.3832 L 34.1901,44.3356 L 34.2853,44.2880 L 34.3329,44.2880 L 34.4282,44.3356 L 34.4758,44.3832 L 34.5234,44.4785 L 34.5234,44.6689 L 34.4758,44.7642 L 34.4282,44.8118 L 34.3329,44.8594 L 34.2853,44.8594 L 34.1901,44.8118 L 34.1425,44.7642 L 34.0948,44.6689 L 34.0948,44.4785 L 34.0472,44.3832 L 33.9996,44.3356 L 33.9044,44.2880 L 33.7139,44.2880 L 33.6187,44.3356 L 33.5710,44.3832 L 33.5234,44.4785 L 33.5234,44.6689 L 33.5710,44.7642 L 33.6187,44.8118 L 33.7139,44.8594 L 33.9044,44.8594 L 33.9996,44.8118 L 34.0472,44.7642 L 34.0948,44.6689" fill="none" stroke="black" stroke-width="0.04"/>
<path d="M 30.6246,47.0185 L 30.5770,47.1613 L 30.5770,47.3994 L 30.6246,47.4947 L 30.6723,47.5423 L 30.7675,47.5899 L 30.8627,47.5899 L 30.9580,47.5423 L 31.0056,47.4947 L 31.0532,47.3994 L 31.1008,47.2090 L 31.1484,47.1137 L 31.1961,47.0661 L 31.2913,47.0185 L 31.3865,47.0185 L 31.4818,47.0661 L 31.5294,47.1137 L 31.5770,47.2090 L 31.5770,47.4471 L 31.5294,47.5899" fill="none" stroke="black" stroke-width="0.04"/>
<path d="M 28.5069,46.9232 L 28.5069,47.6852" fill="none" stroke="black" stroke-width="0.04"/>
<path d="M 28.1259,47.3042 L 28.8878,47.3042" fill="none" stroke="black" stroke-width="0.04"/>
<path d="M 25.9669,46.9232 L 25.9669,47.6852" fill="none" stroke="black" stroke-width="0.04"/>
<path d="M 52.0987,23.3568 L 52.4320,23.8330" fill="none" stroke="black" stroke-width="0.04"/>
<path d="M 52.6701,23.3568 L 52.6701,24.3568 L 52.2892,24.3568 L 52.1939,24.3092 L 52.1463,24.2616 L 52.0987,24.1663 L 52.0987,24.0235 L 52.1463,23.9282 L 52.1939,23.8806 L 52.2892,23.8330 L 52.6701,23.8330" fill="none" stroke="black" stroke-width="0.04"/>
<path d="M 51.0987,23.4521 L 51.1463,23.4044 L 51.2892,23.3568 L 51.3844,23.3568 L 51.5272,23.4044 L 51.6225,23.4997 L 51.6701,23.5949 L 51.7177,23.7854 L 51.7177,23.9282 L 51.6701,24.1187 L 51.6225,24.2140 L 51.5272,24.3092 L 51.3844,24.3568 L 51.2892,24.3568 L 51.1463,24.3092 L 51.0987,24.2616" fill="none" stroke="black" stroke-width="0.04"/>
<path d="M 57.8915,52.4338 L 57.9987,52.4695 L 58.1772,52.4695 L 58.2487,52.4338 L 58.2844,52.3981 L 58.3201,52.3266 L 58.3201,52.2552 L 58.2844,52.1838 L 58.2487,52.1481 L 58.1772,52.1123 L 58.0344,52.0766 L 57.9629,52.0409 L 57.9272,52.0052 L 57.8915,51.9338 L 57.8915,51.8623 L 57.9272,51.7909 L 57.9629,51.7552 L 58.0344,51.7195 L 58.2129,51.7195 L 58.3201,51.7552" fill="none" stroke="black" stroke-width="0.04"/>
<path d="M 59.9909,52.1020 L 59.7409,52.1020" fill="none" stroke="black" stroke-width="0.04"/>
<path d="M 59.7409,52.4949 L 59.7409,51.7449 L 60.0981,51.7449" fill="none" stroke="black" stroke-width="0.04"/>
<path d="M 61.1937,52.4949 L 61.1937,51.7449 L 61.4437,52.2806 L 61.6937,51.7449 L 61.6937,52.4949" fill="none" stroke="black" stroke-width="0.04"/>
<path d="M 62.1937,51.7449 L 62.3365,51.7449 L 62.4079,51.7806 L 62.4794,51.8520 L 62.5151,51.9949 L 62.5151,52.2449 L 62.4794,52.3877 L 62.4079,52.4592 L 62.3365,52.4949 L 62.1937,52.4949 L 62.1222,52.4592 L 62.0508,52.3877 L 62.0151,52.2449 L 62.0151,51.9949 L 62.0508,51.8520 L 62.1222,51.7806 L 62.1937,51.7449" fill="none" stroke="black" stroke-width="0.04"/>
<path d="M 62.8365,52.4949 L 62.8365,51.7449 L 63.0151,51.7449 L 63.1222,51.7806 L 63.1937,51.8520 L 63.2294,51.9235 L 63.2651,52.0663 L 63.2651,52.1735 L 63.2294,52.3163 L 63.1937,52.3877 L 63.1222,52.4592 L 63.0151,52.4949 L 62.8365,52.4949" fill="none" stroke="black" stroke-width="0.04"/>
<path d="M 63.5865,52.1020 L 63.8365,52.1020" fill="none" stroke="black" stroke-width="0.04"/>
<path d="M 63.9437,52.4949 L 63.5865,52.4949 L 63.5865,51.7449 L 63.9437,51.7449" fill="none" stroke="black" stroke-width="0.04"/>
<path d="M 56.4392,41.5614 L 56.4392,41.2281" fill="none" stroke="black" stroke-width="0.04"/>
<path d="M 56.4392,41.2757 L 56.4868,41.2519 L 56.5820,41.2281 L 56.7249,41.2281 L 56.8201,41.2519 L 56.8677,41.2995 L 56.8677,41.5614" fill="none" stroke="black" stroke-width="0.04"/>
<path d="M 56.8677,41.2995 L 56.9153,41.2519 L 57.0106,41.2281 L 57.1534,41.2281 L 57.2487,41.2519 L 57.2963,41.2995 L 57.2963,41.5614" fill="none" stroke="black" stroke-width="0.04"/>
<path d="M 57.7725,41.5614 L 57.7725,41.2281" fill="none" stroke="black" stroke-width="0.04"/>
<path d="M 57.7725,41.0614 L 57.7249,41.0852 L 57.7725,41.1090 L 57.8201,41.0852 L 57.7725,41.0614 L 57.7725,41.1090" fill="none" stroke="black" stroke-width="0.04"/>
<path d="M 58.6773,41.5376 L 58.5820,41.5614 L 58.3915,41.5614 L 58.2963,41.5376 L 58.2487,41.5138 L 58.2011,41.4662 L 58.2011,41.3233 L 58.2487,41.2757 L 58.2963,41.2519 L 58.3915,41.2281 L 58.5820,41.2281 L 58.6773,41.2519" fill="none" stroke="black" stroke-width="0.04"/>
<path d="M 59.1058,41.5614 L 59.1058,41.2281" fill="none" stroke="black" stroke-width="0.04"/>
<path d="M 59.1058,41.3233 L 59.1534,41.2757 L 59.2011,41.2519 L 59.2963,41.2281 L 59.3915,41.2281" fill="none" stroke="black" stroke-width="0.04"/>
<path d="M 59.8677,41.5614 L 59.7725,41.5376 L 59.7249,41.5138 L 59.6773,41.4662 L 59.6773,41.3233 L 59.7249,41.2757 L 59.7725,41.2519 L 59.8677,41.2281 L 60.0106,41.2281 L 60.1058,41.2519 L 60.1534,41.2757 L 60.2011,41.3233 L 60.2011,41.4662 L 60.1534,41.5138 L 60.1058,41.5376 L 60.0106,41.5614 L 59.8677,41.5614" fill="none" stroke="black" stroke-width="0.04"/>
<path d="M 28.9514,57.7182 L 28.9514,58.4802" fill="none" stroke="black" stroke-width="0.04"/>
<path d="M 43.4258,61.0936 L 43.5330,61.1293 L 43.5687,61.1651 L 43.6044,61.2365 L 43.6044,61.3436 L 43.5687,61.4151 L 43.5330,61.4508 L 43.4615,61.4865 L 43.1758,61.4865 L 43.1758,60.7365 L 43.4258,60.7365 L 43.4973,60.7722 L 43.5330,60.8079 L 43.5687,60.8793 L 43.5687,60.9508 L 43.5330,61.0222 L 43.4973,61.0579 L 43.4258,61.0936 L 43.1758,61.0936" fill="none" stroke="black" stroke-width="0.04"/>
<path d="M 44.3187,61.4865 L 43.8901,61.4865" fill="none" stroke="black" stroke-width="0.04"/>
<path d="M 44.1044,61.4865 L 44.1044,60.7365 L 44.0330,60.8436 L 43.9615,60.9151 L 43.8901,60.9508" fill="none" stroke="black" stroke-width="0.04"/>
<path d="M 42.4848,28.9983 L 42.4848,29.3555" fill="none" stroke="black" stroke-width="0.04"/>
<path d="M 42.2348,28.6055 L 42.4848,28.9983 L 42.7348,28.6055" fill="none" stroke="black" stroke-width="0.04"/>
<path d="M 46.4178,27.1409 L 45.9178,26.3909" fill="none" stroke="black" stroke-width="0.04"/>
<path d="M 45.9178,27.1409 L 46.4178,26.3909" fill="none" stroke="black" stroke-width="0.04"/>
<path d="M 33.5234,27.0794 L 33.5234,26.5080" fill="none" stroke="black" stroke-width="0.04"/>
<path d="M 33.5234,26.7937 L 34.5234,26.7937 L 34.3806,26.6985 L 34.2853,26.6032 L 34.2377,26.5080" fill="none" stroke="black" stroke-width="0.04"/>
<path d="M 36.4408,61.0936 L 36.5480,61.1293 L 36.5837,61.1651 L 36.6194,61.2365 L 36.6194,61.3436 L 36.5837,61.4151 L 36.5480,61.4508 L 36.4765,61.4865 L 36.1908,61.4865 L 36.1908,60.7365 L 36.4408,60.7365 L 36.5123,60.7722 L 36.5480,60.8079 L 36.5837,60.8793 L 36.5837,60.9508 L 36.5480,61.0222 L 36.5123,61.0579 L 36.4408,61.0936 L 36.1908,61.0936" fill="none" stroke="black" stroke-width="0.04"/>
<path d="M 37.0837,60.7365 L 37.1551,60.7365 L 37.2265,60.7722 L 37.2623,60.8079 L 37.2980,60.8793 L 37.3337,61.0222 L 37.3337,61.2008 L 37.2980,61.3436 L 37.2623,61.4151 L 37.2265,61.4508 L 37.1551,61.4865 L 37.0837,61.4865 L 37.0123,61.4508 L 36.9765,61.4151 L 36.9408,61.3436 L 36.9051,61.2008 L 36.9051,61.0222 L 36.9408,60.8793 L 36.9765,60.8079 L 37.0123,60.7722 L 37.0837,60.7365" fill="none" stroke="black" stroke-width="0.04"/>
<path d="M 44.1231,22.0161 L 44.5041,22.0161" fill="none" stroke="black" stroke-width="0.04"/>
<path d="M 44.3136,22.2066 L 44.3136,21.8256" fill="none" stroke="black" stroke-width="0.04"/>
<path d="M 49.3197,40.5533 L 49.3197,39.0533" fill="none" stroke="black" stroke-width="0.04"/>
<path d="M 49.3197,39.7676 L 50.7482,39.7676" fill="none" stroke="black" stroke-width="0.04"/>
<path d="M 50.7482,40.5533 L 50.7482,39.0533" fill="none" stroke="black" stroke-width="0.04"/>
<path d="M 51.8197,40.1247 L 53.0101,40.1247" fill="none" stroke="black" stroke-width="0.04"/>
<path d="M 51.5816,40.5533 L 52.4149,39.0533 L 53.2482,40.5533" fill="none" stroke="black" stroke-width="0.04"/>
<path d="M 54.0816,40.5533 L 54.0816,39.0533 L 54.6768,39.0533 L 55.0339,39.1247 L 55.2720,39.2676 L 55.3911,39.4104 L 55.5101,39.6961 L 55.5101,39.9104 L 55.3911,40.1961 L 55.2720,40.3390 L 55.0339,40.4818 L 54.6768,40.5533 L 54.0816,40.5533" fill="none" stroke="black" stroke-width="0.04"/>
<path d="M 56.5816,39.7676 L 57.4149,39.7676" fill="none" stroke="black" stroke-width="0.04"/>
<path d="M 57.7720,40.5533 L 56.5816,40.5533 L 56.5816,39.0533 L 57.7720,39.0533" fill="none" stroke="black" stroke-width="0.04"/>
<path d="M 58.7244,40.4818 L 59.0816,40.5533 L 59.6768,40.5533 L 59.9149,40.4818 L 60.0339,40.4104 L 60.1530,40.2676 L 60.1530,40.1247 L 60.0339,39.9818 L 59.9149,39.9104 L 59.6768,39.8390 L 59.2006,39.7676 L 58.9625,39.6961 L 58.8435,39.6247 L 58.7244,39.4818 L 58.7244,39.3390 L 58.8435,39.1961 L 58.9625,39.1247 L 59.2006,39.0533 L 59.7958,39.0533 L 60.1530,39.1247" fill="none" stroke="black" stroke-width="0.04"/>
<path d="M 54.2678,60.1142 L 55.3378,60.1142" fill="none" stroke="black" stroke-width="0.04"/>
<path d="M 49.7278,59.8242 L 49.2278,59.8242" fill="none" stroke="black" stroke-width="0.04"/>
<path d="M 49.4378,60.1142 L 48.3678,60.1142" fill="none" stroke="black" stroke-width="0.04"/>
<path d="M 48.3678,60.1142 L 48.3678,65.8342" fill="none" stroke="black" stroke-width="0.04"/>
<path d="M 49.7278,60.1242 L 49.7278,59.8242" fill="none" stroke="black" stroke-width="0.04"/>
<path d="M 55.3378,65.8342 L 51.8528,65.8342" fill="none" stroke="black" stroke-width="0.04"/>
<path d="M 51.8528,60.4142 L 54.2678,60.4142" fill="none" stroke="black" stroke-width="0.04"/>
<path d="M 51.8528,60.4142 L 49.4378,60.4142" fill="none" stroke="black" stroke-width="0.04"/>
<path d="M 49.4378,60.4142 L 49.4378,60.1142" fill="none" stroke="black" stroke-width="0.04"/>
<path d="M 54.2678,60.4142 L 54.2678,60.1142" fill="none" stroke="black" stroke-width="0.04"/>
<path d="M 55.3378,60.1142 L 55.3378,65.8342" fill="none" stroke="black" stroke-width="0.04"/>
<path d="M 48.3678,65.8342 L 51.8528,65.8342" fill="none" stroke="black" stroke-width="0.04"/>
<path d="M 41.8996,39.8306 L 42.0796,39.8306" fill="none" stroke="black" stroke-width="0.04"/>
<path d="M 40.0196,40.2306 L 40.0196,39.8306" fill="none" stroke="black" stroke-width="0.04"/>
<path d="M 42.0796,41.8906 L 42.0796,41.4906" fill="none" stroke="black" stroke-width="0.04"/>
<path d="M 40.0196,41.8906 L 40.0196,41.4906" fill="none" stroke="black" stroke-width="0.04"/>
<path d="M 40.0196,39.8306 L 40.1996,39.8306" fill="none" stroke="black" stroke-width="0.04"/>
<path d="M 42.0796,39.8306 L 42.0796,40.2306" fill="none" stroke="black" stroke-width="0.04"/>
<path d="M 41.8996,41.8906 L 42.0796,41.8906" fill="none" stroke="black" stroke-width="0.04"/>
<path d="M 40.1996,41.8906 L 40.0196,41.8906" fill="none" stroke="black" stroke-width="0.04"/>
<path d="M 39.6496,40.5606 L 39.6496,40.5606" fill="none" stroke="black" stroke-width="0.04"/>
<path d="M 37.9918,64.3832 L 31.9918,64.3832" fill="none" stroke="black" stroke-width="0.04"/>
<path d="M 32.5918,66.1332 L 32.5918,64.7332" fill="none" stroke="black" stroke-width="0.04"/>
<path d="M 31.9918,64.3832 L 31.9918,62.4832" fill="none" stroke="black" stroke-width="0.04"/>
<path d="M 37.9918,62.4832 L 37.9918,64.3832" fill="none" stroke="black" stroke-width="0.04"/>
<path d="M 31.9918,62.4832 L 37.9918,62.4832" fill="none" stroke="black" stroke-width="0.04"/>
<path d="M 44.9768,64.3832 L 38.9768,64.3832" fill="none" stroke="black" stroke-width="0.04"/>
<path d="M 44.9768,62.4832 L 44.9768,64.3832" fill="none" stroke="black" stroke-width="0.04"/>
<path d="M 39.5768,66.1332 L 39.5768,64.7332" fill="none" stroke="black" stroke-width="0.04"/>
<path d="M 38.9768,62.4832 L 44.9768,62.4832" fill="none" stroke="black" stroke-width="0.04"/>
<path d="M 38.9768,64.3832 L 38.9768,62.4832" fill="none" stroke="black" stroke-width="0.04"/>
<path d="M 39.8073,23.7858 L 40.1329,23.7858" fill="none" stroke="black" stroke-width="0.04"/>
<path d="M 39.8073,22.7658 L 40.1329,22.7658" fill="none" stroke="black" stroke-width="0.04"/>
<path d="M 44.1886,20.4161 L 44.1886,20.0905" fill="none" stroke="black" stroke-width="0.04"/>
<path d="M 43.1686,20.4161 L 43.1686,20.0905" fill="none" stroke="black" stroke-width="0.04"/>
<path d="M 51.8808,28.3454 L 51.8808,28.6710" fill="none" stroke="black" stroke-width="0.04"/>
<path d="M 52.9008,28.3454 L 52.9008,28.6710" fill="none" stroke="black" stroke-width="0.04"/>
<path d="M 59.1488,55.9267 L 60.6188,55.9267" fill="none" stroke="black" stroke-width="0.04"/>
<path d="M 60.6188,55.9267 L 60.6188,53.6417" fill="none" stroke="black" stroke-width="0.04"/>
<path d="M 59.1488,53.6417 L 59.1488,55.9267" fill="none" stroke="black" stroke-width="0.04"/>
<path d="M 60.9268,55.9267 L 62.3968,55.9267" fill="none" stroke="black" stroke-width="0.04"/>
<path d="M 60.9268,53.6417 L 60.9268,55.9267" fill="none" stroke="black" stroke-width="0.04"/>
<path d="M 62.3968,55.9267 L 62.3968,53.6417" fill="none" stroke="black" stroke-width="0.04"/>
<path d="M 62.7048,55.9267 L 64.1748,55.9267" fill="none" stroke="black" stroke-width="0.04"/>
<path d="M 64.1748,55.9267 L 64.1748,53.6417" fill="none" stroke="black" stroke-width="0.04"/>
<path d="M 62.7048,53.6417 L 62.7048,55.9267" fill="none" stroke="black" stroke-width="0.04"/>
<path d="M 65.5598,25.8652 L 63.8598,25.8652" fill="none" stroke="black" stroke-width="0.04"/>
<path d="M 65.5598,25.8652 L 65.5598,28.4152" fill="none" stroke="black" stroke-width="0.04"/>
<path d="M 63.8598,25.8652 L 63.8598,28.4152" fill="none" stroke="black" stroke-width="0.04"/>
<path d="M 36.3648,47.9637 L 36.3648,46.2637" fill="none" stroke="black" stroke-width="0.04"/>
<path d="M 36.3648,47.9637 L 33.8148,47.9637" fill="none" stroke="black" stroke-width="0.04"/>
<path d="M 36.3648,46.2637 L 33.8148,46.2637" fill="none" stroke="black" stroke-width="0.04"/>
<path d="M 40.8360,25.9480 L 40.8360,26.5980" fill="none" stroke="black" stroke-width="0.04"/>
<path d="M 37.9360,25.9480 L 40.8360,25.9480" fill="none" stroke="black" stroke-width="0.04"/>
<path d="M 40.8360,26.5980 L 37.9360,26.5980" fill="none" stroke="black" stroke-width="0.04"/>
<path d="M 37.9360,26.5980 L 37.9360,25.9480" fill="none" stroke="black" stroke-width="0.04"/>
<path d="M 37.8860,28.0980 L 37.8860,26.9480" fill="none" stroke="black" stroke-width="0.04"/>
<path d="M 64.5808,34.6655 L 64.5808,34.3399" fill="none" stroke="black" stroke-width="0.04"/>
<path d="M 65.6008,34.6655 L 65.6008,34.3399" fill="none" stroke="black" stroke-width="0.04"/>
<path d="M 63.9498,35.6099 L 63.9498,35.9355" fill="none" stroke="black" stroke-width="0.04"/>
<path d="M 62.9298,35.6099 L 62.9298,35.9355" fill="none" stroke="black" stroke-width="0.04"/>
<path d="M 33.6628,53.3102 L 33.6628,53.3102" fill="none" stroke="black" stroke-width="0.04"/>
<path d="M 64.6088,65.8342 L 61.1238,65.8342" fill="none" stroke="black" stroke-width="0.04"/>
<path d="M 61.1238,60.4142 L 58.7088,60.4142" fill="none" stroke="black" stroke-width="0.04"/>
<path d="M 64.6088,60.1142 L 64.6088,65.8342" fill="none" stroke="black" stroke-width="0.04"/>
<path d="M 63.5388,60.1142 L 64.6088,60.1142" fill="none" stroke="black" stroke-width="0.04"/>
<path d="M 57.6388,65.8342 L 61.1238,65.8342" fill="none" stroke="black" stroke-width="0.04"/>
<path d="M 57.6388,60.1142 L 57.6388,65.8342" fill="none" stroke="black" stroke-width="0.04"/>
<path d="M 58.9988,60.1242 L 58.9988,59.8242" fill="none" stroke="black" stroke-width="0.04"/>
<path d="M 58.7088,60.4142 L 58.7088,60.1142" fill="none" stroke="black" stroke-width="0.04"/>
<path d="M 58.7088,60.1142 L 57.6388,60.1142" fill="none" stroke="black" stroke-width="0.04"/>
<path d="M 61.1238,60.4142 L 63.5388,60.4142" fill="none" stroke="black" stroke-width="0.04"/>
<path d="M 58.9988,59.8242 L 58.4988,59.8242" fill="none" stroke="black" stroke-width="0.04"/>
<path d="M 63.5388,60.4142 L 63.5388,60.1142" fill="none" stroke="black" stroke-width="0.04"/>
<path d="M 72.8258,49.8182 L 72.8258,53.3032" fill="none" stroke="black" stroke-width="0.04"/>
<path d="M 72.8258,56.7882 L 72.8258,53.3032" fill="none" stroke="black" stroke-width="0.04"/>
<path d="M 66.8158,55.4282 L 66.8158,55.9282" fill="none" stroke="black" stroke-width="0.04"/>
<path d="M 67.1158,55.4282 L 66.8158,55.4282" fill="none" stroke="black" stroke-width="0.04"/>
<path d="M 67.4058,53.3032 L 67.4058,50.8882" fill="none" stroke="black" stroke-width="0.04"/>
<path d="M 67.1058,49.8182 L 72.8258,49.8182" fill="none" stroke="black" stroke-width="0.04"/>
<path d="M 67.4058,53.3032 L 67.4058,55.7182" fill="none" stroke="black" stroke-width="0.04"/>
<path d="M 67.1058,55.7182 L 67.1058,56.7882" fill="none" stroke="black" stroke-width="0.04"/>
<path d="M 67.4058,55.7182 L 67.1058,55.7182" fill="none" stroke="black" stroke-width="0.04"/>
<path d="M 67.1058,56.7882 L 72.8258,56.7882" fill="none" stroke="black" stroke-width="0.04"/>
<path d="M 67.4058,50.8882 L 67.1058,50.8882" fill="none" stroke="black" stroke-width="0.04"/>
<path d="M 67.1058,50.8882 L 67.1058,49.8182" fill="none" stroke="black" stroke-width="0.04"/>
<path d="M 46.8758,63.8562 L 46.8758,63.8562" fill="none" stroke="black" stroke-width="0.04"/>
<path d="M 46.9258,63.8562 L 46.9258,63.8562" fill="none" stroke="black" stroke-width="0.04"/>
<path d="M 46.9258,63.8562 L 46.8758,63.8562" fill="none" stroke="black" stroke-width="0.04"/>
<path d="M 46.8758,63.8562 L 46.9258,63.8562" fill="none" stroke="black" stroke-width="0.04"/>
<path d="M 46.4698,33.8782 L 46.7498,33.8782" fill="none" stroke="black" stroke-width="0.04"/>
<path d="M 51.0298,33.8782 L 50.7498,33.8782" fill="none" stroke="black" stroke-width="0.04"/>
<path d="M 46.4698,36.9382 L 46.4698,35.9082" fill="none" stroke="black" stroke-width="0.04"/>
<path d="M 51.0298,35.9082 L 51.0298,36.9382" fill="none" stroke="black" stroke-width="0.04"/>
<path d="M 51.0298,36.9382 L 50.7498,36.9382" fill="none" stroke="black" stroke-width="0.04"/>
<path d="M 51.0298,34.9082 L 51.0298,33.8782" fill="none" stroke="black" stroke-width="0.04"/>
<path d="M 46.7498,36.9382 L 46.4698,36.9382" fill="none" stroke="black" stroke-width="0.04"/>
<path d="M 46.4698,34.9082 L 46.4698,33.8782" fill="none" stroke="black" stroke-width="0.04"/>
<path d="M 47.2208,33.3082 L 47.2208,33.3082" fill="none" stroke="black" stroke-width="0.04"/>
<path d="M 34.5573,48.8317 L 33.7548,48.8317" fill="none" stroke="black" stroke-width="0.04"/>
<path d="M 34.3013,50.0367 L 33.7548,50.0367" fill="none" stroke="black" stroke-width="0.04"/>
<path d="M 35.9748,50.0367 L 35.9748,48.8317" fill="none" stroke="black" stroke-width="0.04"/>
<path d="M 33.7548,50.0367 L 33.7548,48.8317" fill="none" stroke="black" stroke-width="0.04"/>
<path d="M 35.9748,50.0367 L 35.4283,50.0367" fill="none" stroke="black" stroke-width="0.04"/>
<path d="M 35.9748,51.5567 L 34.8648,51.5567" fill="none" stroke="black" stroke-width="0.04"/>
<path d="M 35.9748,50.7967 L 35.9748,51.5567" fill="none" stroke="black" stroke-width="0.04"/>
<path d="M 35.9748,48.8317 L 35.1723,48.8317" fill="none" stroke="black" stroke-width="0.04"/>
<path d="M 42.0508,36.9522 L 42.8008,36.9522" fill="none" stroke="black" stroke-width="0.04"/>
<path d="M 37.3308,36.9522 L 36.5808,36.9522" fill="none" stroke="black" stroke-width="0.04"/>
<path d="M 42.8008,36.9522 L 42.8008,36.2022" fill="none" stroke="black" stroke-width="0.04"/>
<path d="M 42.8008,30.7322 L 42.8008,31.4822" fill="none" stroke="black" stroke-width="0.04"/>
<path d="M 42.0508,30.7322 L 42.8008,30.7322" fill="none" stroke="black" stroke-width="0.04"/>
<path d="M 36.5808,36.9522 L 36.5808,36.2022" fill="none" stroke="black" stroke-width="0.04"/>
<path d="M 37.3308,30.7322 L 36.5808,30.7322" fill="none" stroke="black" stroke-width="0.04"/>
<path d="M 29.8258,43.2342 L 29.8258,25.3942" fill="none" stroke="black" stroke-width="0.04"/>
<path d="M 27.2258,45.8342 L 24.6258,45.8342" fill="none" stroke="black" stroke-width="0.04"/>
<path d="M 29.8258,25.3942 L 24.6258,25.3942" fill="none" stroke="black" stroke-width="0.04"/>
<path d="M 29.8258,44.5042 L 29.8258,45.8342" fill="none" stroke="black" stroke-width="0.04"/>
<path d="M 27.2258,43.2342 L 27.2258,45.8342" fill="none" stroke="black" stroke-width="0.04"/>
<path d="M 24.6258,45.8342 L 24.6258,25.3942" fill="none" stroke="black" stroke-width="0.04"/>
<path d="M 29.8258,45.8342 L 28.4958,45.8342" fill="none" stroke="black" stroke-width="0.04"/>
<path d="M 29.8258,43.2342 L 27.2258,43.2342" fill="none" stroke="black" stroke-width="0.04"/>
<path d="M 29.7070,25.4256 L 31.0370,25.4256" fill="none" stroke="black" stroke-width="0.04"/>
<path d="M 32.3670,28.0256 L 32.3670,45.8656" fill="none" stroke="black" stroke-width="0.04"/>
<path d="M 29.7070,28.0256 L 29.7070,45.8656" fill="none" stroke="black" stroke-width="0.04"/>
<path d="M 29.7070,28.0256 L 32.3670,28.0256" fill="none" stroke="black" stroke-width="0.04"/>
<path d="M 29.7070,45.8656 L 32.3670,45.8656" fill="none" stroke="black" stroke-width="0.04"/>
<path d="M 29.7070,26.7556 L 29.7070,25.4256" fill="none" stroke="black" stroke-width="0.04"/>
<path d="M 42.9436,22.5773 L 42.9436,24.8623" fill="none" stroke="black" stroke-width="0.04"/>
<path d="M 42.9436,24.8623 L 44.4136,24.8623" fill="none" stroke="black" stroke-width="0.04"/>
<path d="M 44.4136,24.8623 L 44.4136,22.5773" fill="none" stroke="black" stroke-width="0.04"/>
<path d="M 49.4978,22.8102 L 48.4278,22.8102" fill="none" stroke="black" stroke-width="0.04"/>
<path d="M 51.9128,22.5102 L 49.4978,22.5102" fill="none" stroke="black" stroke-width="0.04"/>
<path d="M 49.4978,22.5102 L 49.4978,22.8102" fill="none" stroke="black" stroke-width="0.04"/>
<path d="M 55.3978,17.0902 L 51.9128,17.0902" fill="none" stroke="black" stroke-width="0.04"/>
<path d="M 54.0378,22.8002 L 54.0378,23.1002" fill="none" stroke="black" stroke-width="0.04"/>
<path d="M 54.3278,22.5102 L 54.3278,22.8102" fill="none" stroke="black" stroke-width="0.04"/>
<path d="M 48.4278,22.8102 L 48.4278,17.0902" fill="none" stroke="black" stroke-width="0.04"/>
<path d="M 51.9128,22.5102 L 54.3278,22.5102" fill="none" stroke="black" stroke-width="0.04"/>
<path d="M 55.3978,22.8102 L 55.3978,17.0902" fill="none" stroke="black" stroke-width="0.04"/>
<path d="M 48.4278,17.0902 L 51.9128,17.0902" fill="none" stroke="black" stroke-width="0.04"/>
<path d="M 54.3278,22.8102 L 55.3978,22.8102" fill="none" stroke="black" stroke-width="0.04"/>
<path d="M 54.0378,23.1002 L 54.5378,23.1002" fill="none" stroke="black" stroke-width="0.04"/>
<path d="M 42.5286,21.8778 L 42.5286,21.8778" fill="none" stroke="black" stroke-width="0.04"/>
<path d="M 63.5365,43.1941 L 63.5365,43.1941" fill="none" stroke="black" stroke-width="0.04"/>
<path d="M 63.4365,43.1941 L 63.4365,43.1941" fill="none" stroke="black" stroke-width="0.04"/>
<path d="M 64.0365,43.8941 L 64.0365,48.0941" fill="none" stroke="black" stroke-width="0.04"/>
<path d="M 62.9365,48.0941 L 61.9365,48.0941" fill="none" stroke="black" stroke-width="0.04"/>
<path d="M 60.8365,43.8941 L 60.8365,48.0941" fill="none" stroke="black" stroke-width="0.04"/>
<path d="M 62.9365,43.8941 L 61.9365,43.8941" fill="none" stroke="black" stroke-width="0.04"/>
<path d="M 63.4365,43.1941 L 63.5365,43.1941" fill="none" stroke="black" stroke-width="0.04"/>
<path d="M 63.5365,43.1941 L 63.4365,43.1941" fill="none" stroke="black" stroke-width="0.04"/>
<path d="M 72.7058,40.7132 L 72.7708,40.7132" fill="none" stroke="black" stroke-width="0.04"/>
<path d="M 66.3008,40.7132 L 66.3658,40.7132" fill="none" stroke="black" stroke-width="0.04"/>
<path d="M 66.3008,44.2432 L 66.3658,44.2432" fill="none" stroke="black" stroke-width="0.04"/>
<path d="M 66.3658,45.5682 L 66.3658,44.2432" fill="none" stroke="black" stroke-width="0.04"/>
<path d="M 72.7058,44.2432 L 72.7708,44.2432" fill="none" stroke="black" stroke-width="0.04"/>
<path d="M 66.3008,44.2432 L 66.3008,40.7132" fill="none" stroke="black" stroke-width="0.04"/>
<path d="M 72.7708,44.2432 L 72.7708,40.7132" fill="none" stroke="black" stroke-width="0.04"/>
<path d="M 62.8368,32.6074 L 64.6368,32.6074" fill="none" stroke="black" stroke-width="0.04"/>
<path d="M 64.6368,29.3874 L 62.1868,29.3874" fill="none" stroke="black" stroke-width="0.04"/>
<path d="M 61.0898,30.5992 L 60.9198,30.5992" fill="none" stroke="black" stroke-width="0.04"/>
<path d="M 61.0898,34.7992 L 61.0898,30.5992" fill="none" stroke="black" stroke-width="0.04"/>
<path d="M 60.9198,30.5992 L 60.9198,29.4092" fill="none" stroke="black" stroke-width="0.04"/>
<path d="M 55.7898,30.5992 L 55.6198,30.5992" fill="none" stroke="black" stroke-width="0.04"/>
<path d="M 61.0898,34.7992 L 60.9198,34.7992" fill="none" stroke="black" stroke-width="0.04"/>
<path d="M 55.7998,34.7992 L 55.6298,34.7992" fill="none" stroke="black" stroke-width="0.04"/>
<path d="M 55.6298,34.7992 L 55.6298,30.5992" fill="none" stroke="black" stroke-width="0.04"/>
<path d="M 34.4938,22.5102 L 33.3288,22.5102" fill="none" stroke="black" stroke-width="0.04"/>
<path d="M 35.3688,23.1002 L 35.8688,23.1002" fill="none" stroke="black" stroke-width="0.04"/>
<path d="M 33.3288,22.8102 L 32.2588,22.8102" fill="none" stroke="black" stroke-width="0.04"/>
<path d="M 33.3288,22.5102 L 33.3288,22.8102" fill="none" stroke="black" stroke-width="0.04"/>
<path d="M 35.3688,22.8002 L 35.3688,23.1002" fill="none" stroke="black" stroke-width="0.04"/>
<path d="M 32.2588,17.0902 L 34.4938,17.0902" fill="none" stroke="black" stroke-width="0.04"/>
<path d="M 36.7288,17.0902 L 34.4938,17.0902" fill="none" stroke="black" stroke-width="0.04"/>
<path d="M 34.4938,22.5102 L 35.6588,22.5102" fill="none" stroke="black" stroke-width="0.04"/>
<path d="M 35.6588,22.8102 L 36.7288,22.8102" fill="none" stroke="black" stroke-width="0.04"/>
<path d="M 36.7288,22.8102 L 36.7288,17.0902" fill="none" stroke="black" stroke-width="0.04"/>
<path d="M 35.6588,22.5102 L 35.6588,22.8102" fill="none" stroke="black" stroke-width="0.04"/>
<path d="M 32.2588,22.8102 L 32.2588,17.0902" fill="none" stroke="black" stroke-width="0.04"/>
<path d="M 47.3498,27.6582 L 47.3498,27.6582" fill="none" stroke="black" stroke-width="0.04"/>
<path d="M 47.4498,27.6582 L 47.4498,27.6582" fill="none" stroke="black" stroke-width="0.04"/>
<path d="M 47.4498,27.6582 L 47.3498,27.6582" fill="none" stroke="black" stroke-width="0.04"/>
<path d="M 47.3498,27.6582 L 47.4498,27.6582" fill="none" stroke="black" stroke-width="0.04"/>
<path d="M 40.9598,44.4582 L 37.6598,44.4582" fill="none" stroke="black" stroke-width="0.04"/>
<path d="M 37.6598,44.4582 L 37.6598,48.4582" fill="none" stroke="black" stroke-width="0.04"/>
<path d="M 55.4068,43.3992 L 54.3318,43.3992" fill="none" stroke="black" stroke-width="0.04"/>
<path d="M 55.4068,43.3992 L 55.4068,44.4742" fill="none" stroke="black" stroke-width="0.04"/>
<path d="M 45.0568,53.7492 L 45.0568,52.6742" fill="none" stroke="black" stroke-width="0.04"/>
<path d="M 45.0568,53.7492 L 46.1318,53.7492" fill="none" stroke="black" stroke-width="0.04"/>
<path d="M 45.0568,43.3992 L 45.0568,44.3992" fill="none" stroke="black" stroke-width="0.04"/>
<path d="M 55.4068,53.7492 L 54.3318,53.7492" fill="none" stroke="black" stroke-width="0.04"/>
<path d="M 55.4068,53.7492 L 55.4068,52.6742" fill="none" stroke="black" stroke-width="0.04"/>
<path d="M 45.0568,44.3992 L 44.0318,44.3992" fill="none" stroke="black" stroke-width="0.04"/>
<path d="M 45.0568,43.3992 L 46.1318,43.3992" fill="none" stroke="black" stroke-width="0.04"/>
<path d="M 39.7266,50.3502 L 39.4010,50.3502" fill="none" stroke="black" stroke-width="0.04"/>
<path d="M 39.7266,51.3702 L 39.4010,51.3702" fill="none" stroke="black" stroke-width="0.04"/>
<path d="M 45.1538,41.1170 L 45.1538,40.7914" fill="none" stroke="black" stroke-width="0.04"/>
<path d="M 44.1338,41.1170 L 44.1338,40.7914" fill="none" stroke="black" stroke-width="0.04"/>
<path d="M 58.8408,55.9267 L 58.8408,53.6417" fill="none" stroke="black" stroke-width="0.04"/>
<path d="M 57.3708,55.9267 L 58.8408,55.9267" fill="none" stroke="black" stroke-width="0.04"/>
<path d="M 57.3708,53.6417 L 57.3708,55.9267" fill="none" stroke="black" stroke-width="0.04"/>
<path d="M 63.1818,23.1002 L 63.6818,23.1002" fill="none" stroke="black" stroke-width="0.04"/>
<path d="M 63.4718,22.5102 L 63.4718,22.8102" fill="none" stroke="black" stroke-width="0.04"/>
<path d="M 63.1818,22.8002 L 63.1818,23.1002" fill="none" stroke="black" stroke-width="0.04"/>
<path d="M 57.5718,22.8102 L 57.5718,17.0902" fill="none" stroke="black" stroke-width="0.04"/>
<path d="M 61.0568,22.5102 L 58.6418,22.5102" fill="none" stroke="black" stroke-width="0.04"/>
<path d="M 58.6418,22.8102 L 57.5718,22.8102" fill="none" stroke="black" stroke-width="0.04"/>
<path d="M 57.5718,17.0902 L 61.0568,17.0902" fill="none" stroke="black" stroke-width="0.04"/>
<path d="M 64.5418,22.8102 L 64.5418,17.0902" fill="none" stroke="black" stroke-width="0.04"/>
<path d="M 64.5418,17.0902 L 61.0568,17.0902" fill="none" stroke="black" stroke-width="0.04"/>
<path d="M 61.0568,22.5102 L 63.4718,22.5102" fill="none" stroke="black" stroke-width="0.04"/>
<path d="M 58.6418,22.5102 L 58.6418,22.8102" fill="none" stroke="black" stroke-width="0.04"/>
<path d="M 63.4718,22.8102 L 64.5418,22.8102" fill="none" stroke="black" stroke-width="0.04"/>
<path d="M 30.0283,56.4607 L 29.9003,56.3317" fill="none" stroke="black" stroke-width="0.04"/>
<path d="M 28.0183,54.0407 L 27.8903,53.9117" fill="none" stroke="black" stroke-width="0.04"/>
<path d="M 24.3993,49.8757 L 24.3993,56.9957" fill="none" stroke="black" stroke-width="0.04"/>
<path d="M 24.7993,49.6357 L 24.1593,49.6357" fill="none" stroke="black" stroke-width="0.04"/>
<path d="M 24.8593,49.8757 L 24.8593,56.9957" fill="none" stroke="black" stroke-width="0.04"/>
<path d="M 32.1193,49.8757 L 32.1193,56.9957" fill="none" stroke="black" stroke-width="0.04"/>
<path d="M 25.9593,49.8757 L 25.9593,56.9957" fill="none" stroke="black" stroke-width="0.04"/>
<path d="M 30.2343,56.2557 L 30.1403,56.1617" fill="none" stroke="black" stroke-width="0.04"/>
<path d="M 27.7783,54.2107 L 27.6853,54.1167" fill="none" stroke="black" stroke-width="0.04"/>
<path d="M 32.1193,56.9957 L 24.3993,56.9957" fill="none" stroke="black" stroke-width="0.04"/>
<path d="M 32.1193,49.8757 L 24.3993,49.8757" fill="none" stroke="black" stroke-width="0.04"/>
<path d="M 24.1593,49.6357 L 24.1593,50.0357" fill="none" stroke="black" stroke-width="0.04"/>
<path d="M 27.5193,50.8197 L 27.2792,51.7144" fill="none" stroke="black" stroke-width="0.04"/>
<path d="M 30.3993,52.5517 L 30.3847,50.7958" fill="none" stroke="black" stroke-width="0.04"/>
<path d="M 28.0683,53.1107 L 29.8495,53.1112" fill="none" stroke="black" stroke-width="0.04"/>
<path d="M 29.8253,50.2457 L 28.0694,50.2603" fill="none" stroke="black" stroke-width="0.04"/>
<path d="M 27.2793,51.6857 L 27.5346,52.5760" fill="none" stroke="black" stroke-width="0.04"/>
<path d="M 30.6393,55.1857 L 30.6393,55.1857" fill="none" stroke="black" stroke-width="0.04"/>
<path d="M 72.9628,26.5172 L 72.8128,26.5172" fill="none" stroke="black" stroke-width="0.04"/>
<path d="M 72.9628,26.8172 L 72.9628,26.5172" fill="none" stroke="black" stroke-width="0.04"/>
<path d="M 73.4128,26.8172 L 72.9628,26.8172" fill="none" stroke="black" stroke-width="0.04"/>
<path d="M 66.8378,31.7422 L 66.8378,32.4672" fill="none" stroke="black" stroke-width="0.04"/>
<path d="M 67.2628,28.8672 L 67.2628,28.1422" fill="none" stroke="black" stroke-width="0.04"/>
<path d="M 72.9628,34.5172 L 73.4128,34.5172" fill="none" stroke="black" stroke-width="0.04"/>
<path d="M 67.2628,32.4672 L 67.2628,33.1922" fill="none" stroke="black" stroke-width="0.04"/>
<path d="M 66.8378,32.4672 L 67.2628,32.4672" fill="none" stroke="black" stroke-width="0.04"/>
<path d="M 69.0128,34.8172 L 70.4128,34.8172" fill="none" stroke="black" stroke-width="0.04"/>
<path d="M 72.9628,34.8172 L 72.9628,34.5172" fill="none" stroke="black" stroke-width="0.04"/>
<path d="M 72.8128,34.8172 L 72.9628,34.8172" fill="none" stroke="black" stroke-width="0.04"/>
<path d="M 70.4128,26.5172 L 69.0128,26.5172" fill="none" stroke="black" stroke-width="0.04"/>
  </g>
</svg>