<svg xmlns="http://www.w3.org/2000/svg" viewBox="0 0 1.1049 0.8000" width="331" height="240"><rect width="100%" height="100%" fill="white"/><g><path d="M 0.5549,0.5619 L 0.4977,0.5810 L 0.4596,0.5810 L 0.4025,0.5619 L 0.3644,0.5238 L 0.3454,0.4857 L 0.3263,0.4095 L 0.3263,0.3524 L 0.3454,0.2762 L 0.3644,0.2381 L 0.4025,0.2000 L 0.4596,0.1810 L 0.4977,0.1810 L 0.5549,0.2000 L 0.5739,0.2190 L 0.7644,0.3333 L 0.7454,0.3143 L 0.7263,0.2762 L 0.7263,0.2571 L 0.1500,0.6500 L 0.7454,0.2190 L 0.7644,0.2000 L 0.8025,0.1810 L 0.8787,0.1810 L 0.9168,0.2000 L 0.9358,0.2190 L 0.9549,0.2571 L 0.9549,0.2762 L 0.9358,0.3143 L 0.9168,0.3333 L 0.8025,0.3524 L 0.7644,0.3714 L 0.7454,0.3905 L 0.7263,0.4286 L 0.7263,0.5048 L 0.7454,0.5429 L 0.7644,0.5619 L 0.8025,0.5810 L 0.8787,0.3524 L 0.8787,0.5810 L 0.9168,0.5619 L 0.9358,0.5429 L 0.9549,0.5048 L 0.9549,0.4286 L 0.9358,0.3905 L 0.9168,0.3714 L 0.8787,0.3524 L 0.1500,0.1500" fill="none" stroke="black" stroke-width="0.015"/></g></svg>