<svg xmlns="http://www.w3.org/2000/svg" viewBox="0 0 1.2905 0.8532" width="387" height="256"><rect width="100%" height="100%" fill="white"/><g><path d="M 0.1500,0.1500 L 0.3024,0.1500 L 0.3405,0.1690 L 0.3595,0.1881 L 0.3786,0.2262 L 0.3786,0.2833 L 0.3595,0.3214 L 0.3405,0.3405 L 0.3024,0.3595 L 0.1500,0.3595 L 0.5310,0.5500 L 0.6452,0.1500 L 0.6071,0.2071 L 0.5690,0.2452 L 0.5310,0.2643 L 0.9500,0.3024 L 0.9310,0.2833 L 0.9119,0.2452 L 0.9119,0.2262 L 0.9310,0.1881 L 0.9500,0.1690 L 0.9881,0.1500 L 1.0643,0.1500 L 1.1024,0.1690 L 1.1214,0.1881 L 1.1405,0.2262 L 1.1405,0.2452 L 1.1214,0.2833 L 1.1024,0.3024 L 1.0643,0.3214 L 0.9881,0.3214 L 0.9500,0.3405 L 0.9310,0.3595 L 0.9119,0.3976 L 0.9119,0.4738 L 0.9310,0.5119 L 0.9500,0.5310 L 0.9881,0.5500 L 1.0643,0.5500 L 1.1024,0.5310 L 1.1214,0.5119 L 1.1405,0.4738 L 1.1405,0.3976 L 1.1214,0.3595 L 1.1024,0.3405 L 1.0643,0.3214 L 1.1103,0.7032 L 0.2452,0.3595" fill="none" stroke="black" stroke-width="0.015"/></g></svg>