<svg xmlns="http://www.w3.org/2000/svg" viewBox="0 0 2.7286 0.8000" width="819" height="240"><rect width="100%" height="100%" fill="white"/><g><path d="M 0.3167,0.3881 L 0.1500,0.6500 L 0.1500,0.1500 L 0.3881,0.1500 L 0.7690,0.3881 L 0.6024,0.6500 L 0.6024,0.1500 L 0.8405,0.1500 L 1.0548,0.1500 L 1.2452,0.1500 L 1.2929,0.1738 L 1.3167,0.1976 L 1.3405,0.2452 L 1.3405,0.3167 L 1.3167,0.3643 L 1.2929,0.3881 L 1.2452,0.4119 L 1.0548,0.4119 L 1.6738,0.4119 L 1.5548,0.1500 L 1.7452,0.1500 L 1.7929,0.1738 L 1.8167,0.1976 L 1.8405,0.2452 L 1.8405,0.3167 L 1.8167,0.3643 L 1.7929,0.3881 L 1.7452,0.4119 L 1.5548,0.4119 L 2.2452,0.1500 L 2.2929,0.1738 L 2.3405,0.2214 L 2.3643,0.3167 L 2.3643,0.4833 L 2.3405,0.5786 L 2.2929,0.6262 L 2.2452,0.6500 L 2.1500,0.6500 L 2.1024,0.6262 L 2.0548,0.5786 L 2.0310,0.4833 L 2.0310,0.3167 L 2.0548,0.2214 L 2.1024,0.1738 L 2.1500,0.1500 L 2.5786,0.1500" fill="none" stroke="black" stroke-width="0.015"/></g></svg>