<svg xmlns="http://www.w3.org/2000/svg" viewBox="0 0 1.4708 0.8000" width="441" height="240"><rect width="100%" height="100%" fill="white"/><g><path d="M 1.3017,0.5048 L 1.2827,0.5429 L 1.2636,0.5619 L 1.2255,0.5810 L 1.1874,0.5810 L 1.1493,0.5619 L 1.1303,0.5429 L 1.1112,0.5048 L 1.0922,0.4286 L 1.0922,0.3333 L 1.1112,0.2571 L 1.1303,0.2190 L 1.1493,0.2000 L 1.1874,0.1810 L 0.1500,0.6500 L 0.1500,0.1500 L 0.5398,0.5619 L 0.4827,0.5810 L 0.4446,0.5810 L 0.3874,0.5619 L 0.3493,0.5238 L 0.3303,0.4857 L 0.3112,0.4095 L 0.3112,0.3524 L 0.3303,0.2762 L 0.3493,0.2381 L 0.3874,0.2000 L 0.4446,0.1810 L 0.4827,0.1810 L 0.5398,0.2000 L 0.5589,0.2190 L 0.7303,0.2000 L 0.7684,0.1810 L 0.8636,0.1810 L 0.9017,0.2000 L 0.9208,0.2190 L 0.9398,0.2571 L 0.9398,0.2952 L 0.9208,0.3524 L 0.6922,0.5810 L 0.9398,0.5810 L 1.2255,0.1810 L 1.2636,0.2000 L 1.2827,0.2190 L 1.3017,0.2571 L 1.3208,0.3333 L 1.3208,0.4286" fill="none" stroke="black" stroke-width="0.015"/></g></svg>