<svg xmlns="http://www.w3.org/2000/svg" viewBox="0 0 1.3000 0.8406" width="390" height="252"><rect width="100%" height="100%" fill="white"/><g><path d="M 0.9198,0.6525 L 0.9389,0.6144 L 0.9389,0.5191 L 0.9198,0.4810 L 0.9008,0.4620 L 0.8627,0.4429 L 0.7865,0.4429 L 0.7484,0.4620 L 0.7294,0.4810 L 0.7103,0.5191 L 0.1500,0.1500 L 1.1500,0.1500 L 0.5389,0.6715 L 0.4817,0.6906 L 0.4436,0.6906 L 0.3865,0.6715 L 0.3484,0.6334 L 0.3294,0.5953 L 0.3103,0.5191 L 0.3103,0.4620 L 0.3294,0.3858 L 0.3484,0.3477 L 0.3865,0.3096 L 0.4436,0.2906 L 0.4817,0.2906 L 0.5389,0.3096 L 0.5579,0.3286 L 0.8246,0.2906 L 0.7865,0.3096 L 0.7675,0.3286 L 0.7294,0.3858 L 0.7103,0.4620 L 0.7103,0.6144 L 0.7294,0.6525 L 0.7484,0.6715 L 0.7865,0.6906 L 0.8627,0.6906 L 0.9008,0.6715" fill="none" stroke="black" stroke-width="0.015"/></g></svg>