<svg xmlns="http://www.w3.org/2000/svg" viewBox="0 0 1.8756 0.8978" width="563" height="269"><rect width="100%" height="100%" fill="white"/><g><path d="M 1.4200,0.1500 L 0.1500,0.1500 L 0.1698,0.3478 L 0.1508,0.5382 L 0.1698,0.5192 L 0.2079,0.5001 L 0.3032,0.5001 L 0.3413,0.5192 L 0.3603,0.5382 L 0.3794,0.5763 L 0.3794,0.6716 L 0.3603,0.7097 L 0.3413,0.7287 L 0.3032,0.7478 L 0.2079,0.7478 L 0.1698,0.7287 L 0.1508,0.7097 L 0.9446,0.7287 L 0.8875,0.7478 L 0.8494,0.7478 L 0.7922,0.7287 L 0.7541,0.6906 L 0.7351,0.6525 L 0.7160,0.5763 L 0.7160,0.5192 L 0.7351,0.4430 L 0.9200,0.1500 L 0.7541,0.4049 L 0.7922,0.3668 L 0.8494,0.3478 L 0.8875,0.3478 L 0.9446,0.3668 L 0.9637,0.3858 L 1.1160,0.7478 L 1.2303,0.3478 L 1.1541,0.4430 L 1.1160,0.4620 L 1.1922,0.4049 L 1.6113,0.3478 L 1.5732,0.3668 L 1.5160,0.4430 L 1.4970,0.5192 L 1.4970,0.6716 L 1.5160,0.7097 L 1.5351,0.7287 L 1.5732,0.7478 L 1.6494,0.7478 L 1.6875,0.7287 L 1.7065,0.7097 L 1.7256,0.6716 L 1.7256,0.5763 L 1.7065,0.5382 L 1.6875,0.5192 L 1.6494,0.5001 L 1.5732,0.5001 L 1.5351,0.5192 L 1.5160,0.5382 L 1.4970,0.5763 L 1.5541,0.3858" fill="none" stroke="black" stroke-width="0.015"/></g></svg>