<svg xmlns="http://www.w3.org/2000/svg" viewBox="0 0 1.3278 0.9676" width="398" height="290"><rect width="100%" height="100%" fill="white"/><g><path d="M 0.1500,0.1500 L 1.1500,0.1500 L 0.2825,0.6271 L 0.1873,0.4176 L 0.3397,0.4176 L 0.3778,0.4366 L 0.3968,0.4556 L 0.4159,0.4937 L 0.4159,0.5509 L 0.3968,0.5890 L 0.3778,0.6080 L 0.3397,0.6271 L 0.1873,0.6271 L 0.5682,0.8176 L 0.6825,0.4176 L 0.6444,0.4747 L 0.6063,0.5128 L 0.5682,0.5318 L 1.0635,0.8176 L 1.1016,0.7985 L 1.1206,0.7795 L 1.1587,0.7223 L 1.1778,0.6461 L 1.1778,0.4937 L 1.1587,0.4556 L 1.1397,0.4366 L 1.1016,0.4176 L 1.0254,0.4176 L 0.9873,0.4366 L 0.9682,0.4556 L 0.9492,0.4937 L 0.9492,0.5890 L 0.9682,0.6271 L 0.9873,0.6461 L 1.0254,0.6652 L 1.1016,0.6652 L 1.1397,0.6461 L 1.1587,0.6271 L 1.1778,0.5890" fill="none" stroke="black" stroke-width="0.015"/></g></svg>