<svg xmlns="http://www.w3.org/2000/svg" viewBox="0 0 1.4756 0.8000" width="443" height="240"><rect width="100%" height="100%" fill="white"/><g><path d="M 1.3256,0.1500 L 1.3256,0.6500 L 0.3786,0.5873 L 0.3214,0.6064 L 0.2833,0.6064 L 0.2262,0.5873 L 0.1881,0.5492 L 0.1690,0.5111 L 0.1500,0.4349 L 0.1500,0.3778 L 0.1690,0.3016 L 0.1881,0.2635 L 0.2262,0.2254 L 0.2833,0.2064 L 0.3214,0.2064 L 0.3786,0.2254 L 0.3976,0.2444 L 0.7786,0.2064 L 0.6452,0.3587 L 0.7024,0.3587 L 0.7405,0.3778 L 0.7595,0.3968 L 0.7786,0.4349 L 0.7786,0.5302 L 0.7595,0.5683 L 0.7405,0.5873 L 0.7024,0.6064 L 0.5881,0.6064 L 0.5500,0.5873 L 0.5310,0.5683 L 0.9500,0.2254 L 0.9881,0.2064 L 1.0833,0.2064 L 1.1214,0.2254 L 1.1405,0.2444 L 1.1595,0.2825 L 1.1595,0.3206 L 1.1405,0.3778 L 0.9119,0.6064 L 1.1595,0.6064" fill="none" stroke="black" stroke-width="0.015"/></g></svg>