<svg xmlns="http://www.w3.org/2000/svg" viewBox="0 0 0.9659 0.8826" width="290" height="265"><rect width="100%" height="100%" fill="white"/><g><path d="M 0.3786,0.5310 L 0.3214,0.5500 L 0.2833,0.5500 L 0.2262,0.5310 L 0.1881,0.4929 L 0.1690,0.4548 L 0.1500,0.3786 L 0.1500,0.3214 L 0.1690,0.2452 L 0.1881,0.2071 L 0.2262,0.1690 L 0.2833,0.1500 L 0.3214,0.1500 L 0.3786,0.1690 L 0.3976,0.1881 L 0.6643,0.5500 L 0.7024,0.5310 L 0.7214,0.5119 L 0.7595,0.4548 L 0.7786,0.3786 L 0.7786,0.2262 L 0.7595,0.1881 L 0.7405,0.1690 L 0.7024,0.1500 L 0.6262,0.1500 L 0.5881,0.1690 L 0.5690,0.1881 L 0.5500,0.2262 L 0.5500,0.3214 L 0.5690,0.3595 L 0.5881,0.3786 L 0.6262,0.3976 L 0.7024,0.3976 L 0.7405,0.3786 L 0.7595,0.3595 L 0.7786,0.3214 L 0.3159,0.7326 L 0.8159,0.7326" fill="none" stroke="black" stroke-width="0.015"/></g></svg>