<svg xmlns="http://www.w3.org/2000/svg" viewBox="0 0 1.3095 0.8406" width="393" height="252"><rect width="100%" height="100%" fill="white"/><g><path d="M 0.3786,0.6715 L 0.3214,0.6906 L 0.2833,0.6906 L 0.2262,0.6715 L 0.1881,0.6334 L 0.1690,0.5953 L 0.1500,0.5191 L 0.1500,0.4620 L 0.1690,0.3858 L 0.1881,0.3477 L 0.2262,0.3096 L 0.2833,0.2906 L 0.3214,0.2906 L 0.3786,0.3096 L 0.3976,0.3286 L 0.5690,0.3096 L 0.6071,0.2906 L 0.7024,0.2906 L 0.7405,0.3096 L 0.7595,0.3286 L 0.7786,0.3667 L 0.7786,0.4048 L 0.7595,0.4620 L 0.5310,0.6906 L 0.7786,0.6906 L 0.9690,0.4429 L 0.9500,0.4239 L 0.9310,0.3858 L 0.9310,0.3667 L 0.9500,0.3286 L 0.9690,0.3096 L 1.0071,0.2906 L 1.0833,0.2906 L 1.1214,0.3096 L 1.1405,0.3286 L 1.1595,0.3667 L 1.1595,0.3858 L 1.1405,0.4239 L 1.1214,0.4429 L 1.0833,0.4620 L 1.0071,0.4620 L 0.9690,0.4810 L 0.9500,0.5001 L 0.9310,0.5382 L 0.9310,0.6144 L 0.9500,0.6525 L 0.9690,0.6715 L 1.0071,0.6906 L 1.0833,0.6906 L 1.1214,0.6715 L 1.1405,0.6525 L 1.1595,0.6144 L 1.1595,0.5382 L 1.1405,0.5001 L 1.1214,0.4810 L 1.0833,0.4620 L 0.1524,0.1500 L 1.1524,0.1500" fill="none" stroke="black" stroke-width="0.015"/></g></svg>