<svg xmlns="http://www.w3.org/2000/svg" viewBox="0 0 1.3095 0.9208" width="393" height="276"><rect width="100%" height="100%" fill="white"/><g><path d="M 1.0262,0.5231 L 1.0833,0.5231 L 1.1214,0.5422 L 1.1405,0.5612 L 1.1595,0.5993 L 0.4556,0.1500 L 0.9556,0.1500 L 1.1595,0.6946 L 1.0833,0.7708 L 0.9690,0.7708 L 0.9310,0.7517 L 0.9119,0.7327 L 1.1405,0.7327 L 1.1214,0.7517 L 0.3786,0.7517 L 0.3214,0.7708 L 0.2833,0.7708 L 0.2262,0.7517 L 0.1881,0.7136 L 0.1690,0.6755 L 0.1500,0.5993 L 0.1500,0.5422 L 0.1690,0.4660 L 0.1881,0.4279 L 0.2262,0.3898 L 0.2833,0.3708 L 0.3214,0.3708 L 0.3786,0.3898 L 0.3976,0.4088 L 0.7786,0.3708 L 0.6452,0.5231 L 0.7024,0.5231 L 0.7405,0.5422 L 0.7595,0.5612 L 0.7786,0.5993 L 0.7786,0.6946 L 0.7595,0.7327 L 0.7405,0.7517 L 0.7024,0.7708 L 0.5881,0.7708 L 0.5500,0.7517 L 0.5310,0.7327 L 1.1595,0.3708" fill="none" stroke="black" stroke-width="0.015"/></g></svg>