<svg xmlns="http://www.w3.org/2000/svg" viewBox="0 0 1.3000 0.9874" width="390" height="296"><rect width="100%" height="100%" fill="white"/><g><path d="M 0.8246,0.8374 L 0.9198,0.8374 L 0.9674,0.8136 L 0.9912,0.7898 L 1.0151,0.7422 L 1.0151,0.6469 L 0.9912,0.5993 L 0.9674,0.5755 L 0.9198,0.5517 L 1.0151,0.4564 L 1.1500,0.1500 L 0.3722,0.5993 L 0.2532,0.3374 L 0.4436,0.3374 L 0.4912,0.3612 L 0.5151,0.3850 L 0.5389,0.4326 L 0.5389,0.5041 L 0.5151,0.5517 L 0.4912,0.5755 L 0.4436,0.5993 L 0.2532,0.5993 L 0.1500,0.1500 L 0.7770,0.5279 L 0.7532,0.5041 L 0.7293,0.4564 L 0.7293,0.4326 L 0.7532,0.3850 L 0.7770,0.3612 L 0.8246,0.3374 L 0.9198,0.3374 L 0.9674,0.3612 L 0.9912,0.3850 L 1.0151,0.4326 L 0.9912,0.5041 L 0.9674,0.5279 L 0.9198,0.5517 L 0.8246,0.5517 L 0.7770,0.5755 L 0.7532,0.5993 L 0.7293,0.6469 L 0.7293,0.7422 L 0.7532,0.7898 L 0.7770,0.8136" fill="none" stroke="black" stroke-width="0.015"/></g></svg>