<svg xmlns="http://www.w3.org/2000/svg" viewBox="0 0 1.3175 0.8660" width="395" height="260"><rect width="100%" height="100%" fill="white"/><g><path d="M 0.9310,0.3921 L 0.9310,0.4874 L 0.9500,0.5255 L 0.9690,0.5445 L 1.0071,0.5636 L 1.0833,0.5636 L 1.1214,0.5445 L 1.1405,0.5255 L 1.1595,0.4874 L 1.1405,0.6207 L 1.1595,0.5445 L 0.3786,0.6969 L 0.3214,0.7160 L 0.2833,0.7160 L 0.2262,0.6969 L 0.1881,0.6588 L 0.1690,0.6207 L 0.1500,0.5445 L 0.1500,0.4874 L 0.1690,0.4112 L 0.1881,0.3731 L 0.2262,0.3350 L 0.2833,0.3160 L 0.3214,0.3160 L 0.3786,0.3350 L 0.3976,0.3540 L 0.5690,0.3350 L 0.6071,0.3160 L 0.7024,0.3160 L 0.7405,0.3350 L 0.7595,0.3540 L 0.7786,0.3921 L 0.7786,0.4302 L 0.7595,0.4874 L 0.5310,0.7160 L 0.7786,0.7160 L 0.1675,0.1500 L 1.0452,0.7160 L 1.0833,0.6969 L 1.1024,0.6779 L 1.1675,0.1500 L 1.1595,0.3921 L 1.1405,0.3540 L 1.1214,0.3350 L 1.0833,0.3160 L 1.0071,0.3160 L 0.9690,0.3350 L 0.9500,0.3540" fill="none" stroke="black" stroke-width="0.015"/></g></svg>